G75*
%MOIN*%
%OFA0B0*%
%FSLAX25Y25*%
%IPPOS*%
%LPD*%
%AMOC8*
5,1,8,0,0,1.08239X$1,22.5*
%
%ADD10R,0.08300X0.05800*%
%ADD11C,0.07800*%
%ADD12C,0.07300*%
%ADD13OC8,0.07800*%
%ADD14R,0.06737X0.06737*%
%ADD15C,0.06737*%
D10*
X0041000Y0151500D03*
X0041000Y0164500D03*
X0061000Y0166500D03*
X0061000Y0179500D03*
D11*
X0106000Y0168000D03*
X0106000Y0158000D03*
X0106000Y0148000D03*
X0106000Y0138000D03*
X0106000Y0128000D03*
X0106000Y0118000D03*
X0106000Y0108000D03*
X0106000Y0098000D03*
X0106000Y0088000D03*
X0106000Y0078000D03*
X0106000Y0068000D03*
X0106000Y0058000D03*
X0106000Y0048000D03*
X0106000Y0038000D03*
X0106000Y0028000D03*
X0166000Y0028000D03*
X0166000Y0038000D03*
X0166000Y0048000D03*
X0166000Y0058000D03*
X0166000Y0068000D03*
X0166000Y0078000D03*
X0166000Y0088000D03*
X0166000Y0098000D03*
X0166000Y0108000D03*
X0166000Y0118000D03*
X0166000Y0128000D03*
X0166000Y0138000D03*
X0166000Y0148000D03*
X0166000Y0158000D03*
X0166000Y0168000D03*
D12*
X0166000Y0178000D03*
X0106000Y0178000D03*
X0106000Y0018000D03*
X0166000Y0018000D03*
D13*
X0146100Y0018400D03*
X0136100Y0018400D03*
X0126100Y0018400D03*
X0126100Y0028400D03*
X0136100Y0028400D03*
X0146100Y0028400D03*
D14*
X0026000Y0018000D03*
X0021000Y0093000D03*
X0021000Y0143000D03*
X0101000Y0193000D03*
X0221000Y0118000D03*
D15*
X0221000Y0108000D03*
X0221000Y0098000D03*
X0221000Y0128000D03*
X0091000Y0193000D03*
X0081000Y0193000D03*
X0071000Y0193000D03*
X0061000Y0193000D03*
X0051000Y0193000D03*
X0021000Y0163000D03*
X0021000Y0153000D03*
X0021000Y0083000D03*
X0021000Y0073000D03*
X0021000Y0063000D03*
X0041000Y0018000D03*
M02*
