G75*
%MOIN*%
%OFA0B0*%
%FSLAX25Y25*%
%IPPOS*%
%LPD*%
%AMOC8*
5,1,8,0,0,1.08239X$1,22.5*
%
%ADD10C,0.00000*%
%ADD11C,0.00300*%
%ADD12C,0.00400*%
%ADD13R,0.01575X0.01575*%
%ADD14C,0.00500*%
%ADD15C,0.00600*%
%ADD16C,0.00100*%
D10*
X0001000Y0003000D02*
X0001000Y0211701D01*
X0245921Y0211701D01*
X0245921Y0003000D01*
X0001000Y0003000D01*
X0102750Y0018000D02*
X0102752Y0018113D01*
X0102758Y0018227D01*
X0102768Y0018340D01*
X0102782Y0018452D01*
X0102799Y0018564D01*
X0102821Y0018676D01*
X0102847Y0018786D01*
X0102876Y0018896D01*
X0102909Y0019004D01*
X0102946Y0019112D01*
X0102987Y0019217D01*
X0103031Y0019322D01*
X0103079Y0019425D01*
X0103130Y0019526D01*
X0103185Y0019625D01*
X0103244Y0019722D01*
X0103306Y0019817D01*
X0103371Y0019910D01*
X0103439Y0020001D01*
X0103510Y0020089D01*
X0103585Y0020175D01*
X0103662Y0020258D01*
X0103742Y0020338D01*
X0103825Y0020415D01*
X0103911Y0020490D01*
X0103999Y0020561D01*
X0104090Y0020629D01*
X0104183Y0020694D01*
X0104278Y0020756D01*
X0104375Y0020815D01*
X0104474Y0020870D01*
X0104575Y0020921D01*
X0104678Y0020969D01*
X0104783Y0021013D01*
X0104888Y0021054D01*
X0104996Y0021091D01*
X0105104Y0021124D01*
X0105214Y0021153D01*
X0105324Y0021179D01*
X0105436Y0021201D01*
X0105548Y0021218D01*
X0105660Y0021232D01*
X0105773Y0021242D01*
X0105887Y0021248D01*
X0106000Y0021250D01*
X0106113Y0021248D01*
X0106227Y0021242D01*
X0106340Y0021232D01*
X0106452Y0021218D01*
X0106564Y0021201D01*
X0106676Y0021179D01*
X0106786Y0021153D01*
X0106896Y0021124D01*
X0107004Y0021091D01*
X0107112Y0021054D01*
X0107217Y0021013D01*
X0107322Y0020969D01*
X0107425Y0020921D01*
X0107526Y0020870D01*
X0107625Y0020815D01*
X0107722Y0020756D01*
X0107817Y0020694D01*
X0107910Y0020629D01*
X0108001Y0020561D01*
X0108089Y0020490D01*
X0108175Y0020415D01*
X0108258Y0020338D01*
X0108338Y0020258D01*
X0108415Y0020175D01*
X0108490Y0020089D01*
X0108561Y0020001D01*
X0108629Y0019910D01*
X0108694Y0019817D01*
X0108756Y0019722D01*
X0108815Y0019625D01*
X0108870Y0019526D01*
X0108921Y0019425D01*
X0108969Y0019322D01*
X0109013Y0019217D01*
X0109054Y0019112D01*
X0109091Y0019004D01*
X0109124Y0018896D01*
X0109153Y0018786D01*
X0109179Y0018676D01*
X0109201Y0018564D01*
X0109218Y0018452D01*
X0109232Y0018340D01*
X0109242Y0018227D01*
X0109248Y0018113D01*
X0109250Y0018000D01*
X0109248Y0017887D01*
X0109242Y0017773D01*
X0109232Y0017660D01*
X0109218Y0017548D01*
X0109201Y0017436D01*
X0109179Y0017324D01*
X0109153Y0017214D01*
X0109124Y0017104D01*
X0109091Y0016996D01*
X0109054Y0016888D01*
X0109013Y0016783D01*
X0108969Y0016678D01*
X0108921Y0016575D01*
X0108870Y0016474D01*
X0108815Y0016375D01*
X0108756Y0016278D01*
X0108694Y0016183D01*
X0108629Y0016090D01*
X0108561Y0015999D01*
X0108490Y0015911D01*
X0108415Y0015825D01*
X0108338Y0015742D01*
X0108258Y0015662D01*
X0108175Y0015585D01*
X0108089Y0015510D01*
X0108001Y0015439D01*
X0107910Y0015371D01*
X0107817Y0015306D01*
X0107722Y0015244D01*
X0107625Y0015185D01*
X0107526Y0015130D01*
X0107425Y0015079D01*
X0107322Y0015031D01*
X0107217Y0014987D01*
X0107112Y0014946D01*
X0107004Y0014909D01*
X0106896Y0014876D01*
X0106786Y0014847D01*
X0106676Y0014821D01*
X0106564Y0014799D01*
X0106452Y0014782D01*
X0106340Y0014768D01*
X0106227Y0014758D01*
X0106113Y0014752D01*
X0106000Y0014750D01*
X0105887Y0014752D01*
X0105773Y0014758D01*
X0105660Y0014768D01*
X0105548Y0014782D01*
X0105436Y0014799D01*
X0105324Y0014821D01*
X0105214Y0014847D01*
X0105104Y0014876D01*
X0104996Y0014909D01*
X0104888Y0014946D01*
X0104783Y0014987D01*
X0104678Y0015031D01*
X0104575Y0015079D01*
X0104474Y0015130D01*
X0104375Y0015185D01*
X0104278Y0015244D01*
X0104183Y0015306D01*
X0104090Y0015371D01*
X0103999Y0015439D01*
X0103911Y0015510D01*
X0103825Y0015585D01*
X0103742Y0015662D01*
X0103662Y0015742D01*
X0103585Y0015825D01*
X0103510Y0015911D01*
X0103439Y0015999D01*
X0103371Y0016090D01*
X0103306Y0016183D01*
X0103244Y0016278D01*
X0103185Y0016375D01*
X0103130Y0016474D01*
X0103079Y0016575D01*
X0103031Y0016678D01*
X0102987Y0016783D01*
X0102946Y0016888D01*
X0102909Y0016996D01*
X0102876Y0017104D01*
X0102847Y0017214D01*
X0102821Y0017324D01*
X0102799Y0017436D01*
X0102782Y0017548D01*
X0102768Y0017660D01*
X0102758Y0017773D01*
X0102752Y0017887D01*
X0102750Y0018000D01*
X0162750Y0018000D02*
X0162752Y0018113D01*
X0162758Y0018227D01*
X0162768Y0018340D01*
X0162782Y0018452D01*
X0162799Y0018564D01*
X0162821Y0018676D01*
X0162847Y0018786D01*
X0162876Y0018896D01*
X0162909Y0019004D01*
X0162946Y0019112D01*
X0162987Y0019217D01*
X0163031Y0019322D01*
X0163079Y0019425D01*
X0163130Y0019526D01*
X0163185Y0019625D01*
X0163244Y0019722D01*
X0163306Y0019817D01*
X0163371Y0019910D01*
X0163439Y0020001D01*
X0163510Y0020089D01*
X0163585Y0020175D01*
X0163662Y0020258D01*
X0163742Y0020338D01*
X0163825Y0020415D01*
X0163911Y0020490D01*
X0163999Y0020561D01*
X0164090Y0020629D01*
X0164183Y0020694D01*
X0164278Y0020756D01*
X0164375Y0020815D01*
X0164474Y0020870D01*
X0164575Y0020921D01*
X0164678Y0020969D01*
X0164783Y0021013D01*
X0164888Y0021054D01*
X0164996Y0021091D01*
X0165104Y0021124D01*
X0165214Y0021153D01*
X0165324Y0021179D01*
X0165436Y0021201D01*
X0165548Y0021218D01*
X0165660Y0021232D01*
X0165773Y0021242D01*
X0165887Y0021248D01*
X0166000Y0021250D01*
X0166113Y0021248D01*
X0166227Y0021242D01*
X0166340Y0021232D01*
X0166452Y0021218D01*
X0166564Y0021201D01*
X0166676Y0021179D01*
X0166786Y0021153D01*
X0166896Y0021124D01*
X0167004Y0021091D01*
X0167112Y0021054D01*
X0167217Y0021013D01*
X0167322Y0020969D01*
X0167425Y0020921D01*
X0167526Y0020870D01*
X0167625Y0020815D01*
X0167722Y0020756D01*
X0167817Y0020694D01*
X0167910Y0020629D01*
X0168001Y0020561D01*
X0168089Y0020490D01*
X0168175Y0020415D01*
X0168258Y0020338D01*
X0168338Y0020258D01*
X0168415Y0020175D01*
X0168490Y0020089D01*
X0168561Y0020001D01*
X0168629Y0019910D01*
X0168694Y0019817D01*
X0168756Y0019722D01*
X0168815Y0019625D01*
X0168870Y0019526D01*
X0168921Y0019425D01*
X0168969Y0019322D01*
X0169013Y0019217D01*
X0169054Y0019112D01*
X0169091Y0019004D01*
X0169124Y0018896D01*
X0169153Y0018786D01*
X0169179Y0018676D01*
X0169201Y0018564D01*
X0169218Y0018452D01*
X0169232Y0018340D01*
X0169242Y0018227D01*
X0169248Y0018113D01*
X0169250Y0018000D01*
X0169248Y0017887D01*
X0169242Y0017773D01*
X0169232Y0017660D01*
X0169218Y0017548D01*
X0169201Y0017436D01*
X0169179Y0017324D01*
X0169153Y0017214D01*
X0169124Y0017104D01*
X0169091Y0016996D01*
X0169054Y0016888D01*
X0169013Y0016783D01*
X0168969Y0016678D01*
X0168921Y0016575D01*
X0168870Y0016474D01*
X0168815Y0016375D01*
X0168756Y0016278D01*
X0168694Y0016183D01*
X0168629Y0016090D01*
X0168561Y0015999D01*
X0168490Y0015911D01*
X0168415Y0015825D01*
X0168338Y0015742D01*
X0168258Y0015662D01*
X0168175Y0015585D01*
X0168089Y0015510D01*
X0168001Y0015439D01*
X0167910Y0015371D01*
X0167817Y0015306D01*
X0167722Y0015244D01*
X0167625Y0015185D01*
X0167526Y0015130D01*
X0167425Y0015079D01*
X0167322Y0015031D01*
X0167217Y0014987D01*
X0167112Y0014946D01*
X0167004Y0014909D01*
X0166896Y0014876D01*
X0166786Y0014847D01*
X0166676Y0014821D01*
X0166564Y0014799D01*
X0166452Y0014782D01*
X0166340Y0014768D01*
X0166227Y0014758D01*
X0166113Y0014752D01*
X0166000Y0014750D01*
X0165887Y0014752D01*
X0165773Y0014758D01*
X0165660Y0014768D01*
X0165548Y0014782D01*
X0165436Y0014799D01*
X0165324Y0014821D01*
X0165214Y0014847D01*
X0165104Y0014876D01*
X0164996Y0014909D01*
X0164888Y0014946D01*
X0164783Y0014987D01*
X0164678Y0015031D01*
X0164575Y0015079D01*
X0164474Y0015130D01*
X0164375Y0015185D01*
X0164278Y0015244D01*
X0164183Y0015306D01*
X0164090Y0015371D01*
X0163999Y0015439D01*
X0163911Y0015510D01*
X0163825Y0015585D01*
X0163742Y0015662D01*
X0163662Y0015742D01*
X0163585Y0015825D01*
X0163510Y0015911D01*
X0163439Y0015999D01*
X0163371Y0016090D01*
X0163306Y0016183D01*
X0163244Y0016278D01*
X0163185Y0016375D01*
X0163130Y0016474D01*
X0163079Y0016575D01*
X0163031Y0016678D01*
X0162987Y0016783D01*
X0162946Y0016888D01*
X0162909Y0016996D01*
X0162876Y0017104D01*
X0162847Y0017214D01*
X0162821Y0017324D01*
X0162799Y0017436D01*
X0162782Y0017548D01*
X0162768Y0017660D01*
X0162758Y0017773D01*
X0162752Y0017887D01*
X0162750Y0018000D01*
X0162750Y0178000D02*
X0162752Y0178113D01*
X0162758Y0178227D01*
X0162768Y0178340D01*
X0162782Y0178452D01*
X0162799Y0178564D01*
X0162821Y0178676D01*
X0162847Y0178786D01*
X0162876Y0178896D01*
X0162909Y0179004D01*
X0162946Y0179112D01*
X0162987Y0179217D01*
X0163031Y0179322D01*
X0163079Y0179425D01*
X0163130Y0179526D01*
X0163185Y0179625D01*
X0163244Y0179722D01*
X0163306Y0179817D01*
X0163371Y0179910D01*
X0163439Y0180001D01*
X0163510Y0180089D01*
X0163585Y0180175D01*
X0163662Y0180258D01*
X0163742Y0180338D01*
X0163825Y0180415D01*
X0163911Y0180490D01*
X0163999Y0180561D01*
X0164090Y0180629D01*
X0164183Y0180694D01*
X0164278Y0180756D01*
X0164375Y0180815D01*
X0164474Y0180870D01*
X0164575Y0180921D01*
X0164678Y0180969D01*
X0164783Y0181013D01*
X0164888Y0181054D01*
X0164996Y0181091D01*
X0165104Y0181124D01*
X0165214Y0181153D01*
X0165324Y0181179D01*
X0165436Y0181201D01*
X0165548Y0181218D01*
X0165660Y0181232D01*
X0165773Y0181242D01*
X0165887Y0181248D01*
X0166000Y0181250D01*
X0166113Y0181248D01*
X0166227Y0181242D01*
X0166340Y0181232D01*
X0166452Y0181218D01*
X0166564Y0181201D01*
X0166676Y0181179D01*
X0166786Y0181153D01*
X0166896Y0181124D01*
X0167004Y0181091D01*
X0167112Y0181054D01*
X0167217Y0181013D01*
X0167322Y0180969D01*
X0167425Y0180921D01*
X0167526Y0180870D01*
X0167625Y0180815D01*
X0167722Y0180756D01*
X0167817Y0180694D01*
X0167910Y0180629D01*
X0168001Y0180561D01*
X0168089Y0180490D01*
X0168175Y0180415D01*
X0168258Y0180338D01*
X0168338Y0180258D01*
X0168415Y0180175D01*
X0168490Y0180089D01*
X0168561Y0180001D01*
X0168629Y0179910D01*
X0168694Y0179817D01*
X0168756Y0179722D01*
X0168815Y0179625D01*
X0168870Y0179526D01*
X0168921Y0179425D01*
X0168969Y0179322D01*
X0169013Y0179217D01*
X0169054Y0179112D01*
X0169091Y0179004D01*
X0169124Y0178896D01*
X0169153Y0178786D01*
X0169179Y0178676D01*
X0169201Y0178564D01*
X0169218Y0178452D01*
X0169232Y0178340D01*
X0169242Y0178227D01*
X0169248Y0178113D01*
X0169250Y0178000D01*
X0169248Y0177887D01*
X0169242Y0177773D01*
X0169232Y0177660D01*
X0169218Y0177548D01*
X0169201Y0177436D01*
X0169179Y0177324D01*
X0169153Y0177214D01*
X0169124Y0177104D01*
X0169091Y0176996D01*
X0169054Y0176888D01*
X0169013Y0176783D01*
X0168969Y0176678D01*
X0168921Y0176575D01*
X0168870Y0176474D01*
X0168815Y0176375D01*
X0168756Y0176278D01*
X0168694Y0176183D01*
X0168629Y0176090D01*
X0168561Y0175999D01*
X0168490Y0175911D01*
X0168415Y0175825D01*
X0168338Y0175742D01*
X0168258Y0175662D01*
X0168175Y0175585D01*
X0168089Y0175510D01*
X0168001Y0175439D01*
X0167910Y0175371D01*
X0167817Y0175306D01*
X0167722Y0175244D01*
X0167625Y0175185D01*
X0167526Y0175130D01*
X0167425Y0175079D01*
X0167322Y0175031D01*
X0167217Y0174987D01*
X0167112Y0174946D01*
X0167004Y0174909D01*
X0166896Y0174876D01*
X0166786Y0174847D01*
X0166676Y0174821D01*
X0166564Y0174799D01*
X0166452Y0174782D01*
X0166340Y0174768D01*
X0166227Y0174758D01*
X0166113Y0174752D01*
X0166000Y0174750D01*
X0165887Y0174752D01*
X0165773Y0174758D01*
X0165660Y0174768D01*
X0165548Y0174782D01*
X0165436Y0174799D01*
X0165324Y0174821D01*
X0165214Y0174847D01*
X0165104Y0174876D01*
X0164996Y0174909D01*
X0164888Y0174946D01*
X0164783Y0174987D01*
X0164678Y0175031D01*
X0164575Y0175079D01*
X0164474Y0175130D01*
X0164375Y0175185D01*
X0164278Y0175244D01*
X0164183Y0175306D01*
X0164090Y0175371D01*
X0163999Y0175439D01*
X0163911Y0175510D01*
X0163825Y0175585D01*
X0163742Y0175662D01*
X0163662Y0175742D01*
X0163585Y0175825D01*
X0163510Y0175911D01*
X0163439Y0175999D01*
X0163371Y0176090D01*
X0163306Y0176183D01*
X0163244Y0176278D01*
X0163185Y0176375D01*
X0163130Y0176474D01*
X0163079Y0176575D01*
X0163031Y0176678D01*
X0162987Y0176783D01*
X0162946Y0176888D01*
X0162909Y0176996D01*
X0162876Y0177104D01*
X0162847Y0177214D01*
X0162821Y0177324D01*
X0162799Y0177436D01*
X0162782Y0177548D01*
X0162768Y0177660D01*
X0162758Y0177773D01*
X0162752Y0177887D01*
X0162750Y0178000D01*
X0102750Y0178000D02*
X0102752Y0178113D01*
X0102758Y0178227D01*
X0102768Y0178340D01*
X0102782Y0178452D01*
X0102799Y0178564D01*
X0102821Y0178676D01*
X0102847Y0178786D01*
X0102876Y0178896D01*
X0102909Y0179004D01*
X0102946Y0179112D01*
X0102987Y0179217D01*
X0103031Y0179322D01*
X0103079Y0179425D01*
X0103130Y0179526D01*
X0103185Y0179625D01*
X0103244Y0179722D01*
X0103306Y0179817D01*
X0103371Y0179910D01*
X0103439Y0180001D01*
X0103510Y0180089D01*
X0103585Y0180175D01*
X0103662Y0180258D01*
X0103742Y0180338D01*
X0103825Y0180415D01*
X0103911Y0180490D01*
X0103999Y0180561D01*
X0104090Y0180629D01*
X0104183Y0180694D01*
X0104278Y0180756D01*
X0104375Y0180815D01*
X0104474Y0180870D01*
X0104575Y0180921D01*
X0104678Y0180969D01*
X0104783Y0181013D01*
X0104888Y0181054D01*
X0104996Y0181091D01*
X0105104Y0181124D01*
X0105214Y0181153D01*
X0105324Y0181179D01*
X0105436Y0181201D01*
X0105548Y0181218D01*
X0105660Y0181232D01*
X0105773Y0181242D01*
X0105887Y0181248D01*
X0106000Y0181250D01*
X0106113Y0181248D01*
X0106227Y0181242D01*
X0106340Y0181232D01*
X0106452Y0181218D01*
X0106564Y0181201D01*
X0106676Y0181179D01*
X0106786Y0181153D01*
X0106896Y0181124D01*
X0107004Y0181091D01*
X0107112Y0181054D01*
X0107217Y0181013D01*
X0107322Y0180969D01*
X0107425Y0180921D01*
X0107526Y0180870D01*
X0107625Y0180815D01*
X0107722Y0180756D01*
X0107817Y0180694D01*
X0107910Y0180629D01*
X0108001Y0180561D01*
X0108089Y0180490D01*
X0108175Y0180415D01*
X0108258Y0180338D01*
X0108338Y0180258D01*
X0108415Y0180175D01*
X0108490Y0180089D01*
X0108561Y0180001D01*
X0108629Y0179910D01*
X0108694Y0179817D01*
X0108756Y0179722D01*
X0108815Y0179625D01*
X0108870Y0179526D01*
X0108921Y0179425D01*
X0108969Y0179322D01*
X0109013Y0179217D01*
X0109054Y0179112D01*
X0109091Y0179004D01*
X0109124Y0178896D01*
X0109153Y0178786D01*
X0109179Y0178676D01*
X0109201Y0178564D01*
X0109218Y0178452D01*
X0109232Y0178340D01*
X0109242Y0178227D01*
X0109248Y0178113D01*
X0109250Y0178000D01*
X0109248Y0177887D01*
X0109242Y0177773D01*
X0109232Y0177660D01*
X0109218Y0177548D01*
X0109201Y0177436D01*
X0109179Y0177324D01*
X0109153Y0177214D01*
X0109124Y0177104D01*
X0109091Y0176996D01*
X0109054Y0176888D01*
X0109013Y0176783D01*
X0108969Y0176678D01*
X0108921Y0176575D01*
X0108870Y0176474D01*
X0108815Y0176375D01*
X0108756Y0176278D01*
X0108694Y0176183D01*
X0108629Y0176090D01*
X0108561Y0175999D01*
X0108490Y0175911D01*
X0108415Y0175825D01*
X0108338Y0175742D01*
X0108258Y0175662D01*
X0108175Y0175585D01*
X0108089Y0175510D01*
X0108001Y0175439D01*
X0107910Y0175371D01*
X0107817Y0175306D01*
X0107722Y0175244D01*
X0107625Y0175185D01*
X0107526Y0175130D01*
X0107425Y0175079D01*
X0107322Y0175031D01*
X0107217Y0174987D01*
X0107112Y0174946D01*
X0107004Y0174909D01*
X0106896Y0174876D01*
X0106786Y0174847D01*
X0106676Y0174821D01*
X0106564Y0174799D01*
X0106452Y0174782D01*
X0106340Y0174768D01*
X0106227Y0174758D01*
X0106113Y0174752D01*
X0106000Y0174750D01*
X0105887Y0174752D01*
X0105773Y0174758D01*
X0105660Y0174768D01*
X0105548Y0174782D01*
X0105436Y0174799D01*
X0105324Y0174821D01*
X0105214Y0174847D01*
X0105104Y0174876D01*
X0104996Y0174909D01*
X0104888Y0174946D01*
X0104783Y0174987D01*
X0104678Y0175031D01*
X0104575Y0175079D01*
X0104474Y0175130D01*
X0104375Y0175185D01*
X0104278Y0175244D01*
X0104183Y0175306D01*
X0104090Y0175371D01*
X0103999Y0175439D01*
X0103911Y0175510D01*
X0103825Y0175585D01*
X0103742Y0175662D01*
X0103662Y0175742D01*
X0103585Y0175825D01*
X0103510Y0175911D01*
X0103439Y0175999D01*
X0103371Y0176090D01*
X0103306Y0176183D01*
X0103244Y0176278D01*
X0103185Y0176375D01*
X0103130Y0176474D01*
X0103079Y0176575D01*
X0103031Y0176678D01*
X0102987Y0176783D01*
X0102946Y0176888D01*
X0102909Y0176996D01*
X0102876Y0177104D01*
X0102847Y0177214D01*
X0102821Y0177324D01*
X0102799Y0177436D01*
X0102782Y0177548D01*
X0102768Y0177660D01*
X0102758Y0177773D01*
X0102752Y0177887D01*
X0102750Y0178000D01*
D11*
X0055850Y0177957D02*
X0054399Y0177957D01*
X0053915Y0178441D01*
X0054399Y0178925D01*
X0055850Y0178925D01*
X0055850Y0179936D02*
X0052948Y0179936D01*
X0052948Y0181871D01*
X0054399Y0180904D02*
X0054399Y0179936D01*
X0054399Y0177957D02*
X0053915Y0177473D01*
X0053915Y0176990D01*
X0055850Y0176990D01*
X0055366Y0175978D02*
X0053431Y0175978D01*
X0055366Y0174043D01*
X0055850Y0174527D01*
X0055850Y0175494D01*
X0055366Y0175978D01*
X0053431Y0175978D02*
X0052948Y0175494D01*
X0052948Y0174527D01*
X0053431Y0174043D01*
X0055366Y0174043D01*
X0055850Y0173031D02*
X0055850Y0171097D01*
X0053915Y0173031D01*
X0053431Y0173031D01*
X0052948Y0172548D01*
X0052948Y0171580D01*
X0053431Y0171097D01*
X0053431Y0170085D02*
X0052948Y0169601D01*
X0052948Y0168634D01*
X0053431Y0168150D01*
X0053431Y0170085D02*
X0053915Y0170085D01*
X0055850Y0168150D01*
X0055850Y0170085D01*
X0035850Y0166871D02*
X0034883Y0165904D01*
X0034883Y0166387D02*
X0034883Y0164936D01*
X0035850Y0164936D02*
X0032948Y0164936D01*
X0032948Y0166387D01*
X0033431Y0166871D01*
X0034399Y0166871D01*
X0034883Y0166387D01*
X0035366Y0160978D02*
X0033431Y0160978D01*
X0035366Y0159043D01*
X0035850Y0159527D01*
X0035850Y0160494D01*
X0035366Y0160978D01*
X0033431Y0160978D02*
X0032948Y0160494D01*
X0032948Y0159527D01*
X0033431Y0159043D01*
X0035366Y0159043D01*
X0035366Y0158031D02*
X0035850Y0157548D01*
X0035850Y0156580D01*
X0035366Y0156097D01*
X0034399Y0156097D02*
X0033915Y0157064D01*
X0033915Y0157548D01*
X0034399Y0158031D01*
X0035366Y0158031D01*
X0034399Y0156097D02*
X0032948Y0156097D01*
X0032948Y0158031D01*
X0032948Y0154117D02*
X0035850Y0154117D01*
X0035850Y0153150D02*
X0035850Y0155085D01*
X0033915Y0153150D02*
X0032948Y0154117D01*
X0012850Y0146011D02*
X0012366Y0145527D01*
X0010431Y0145527D01*
X0010915Y0145043D02*
X0010915Y0146011D01*
X0011399Y0144031D02*
X0012850Y0144031D01*
X0011399Y0144031D02*
X0010915Y0143548D01*
X0010915Y0142580D01*
X0011399Y0142097D01*
X0010915Y0141085D02*
X0010915Y0139634D01*
X0011399Y0139150D01*
X0012366Y0139150D01*
X0012850Y0139634D01*
X0012850Y0141085D01*
X0009948Y0141085D01*
X0009948Y0142097D02*
X0012850Y0142097D01*
X0013203Y0072852D02*
X0015138Y0069950D01*
X0013203Y0069950D02*
X0015138Y0072852D01*
X0012192Y0072369D02*
X0012192Y0071401D01*
X0011708Y0070917D01*
X0010257Y0070917D01*
X0010257Y0069950D02*
X0010257Y0072852D01*
X0011708Y0072852D01*
X0012192Y0072369D01*
X0011224Y0070917D02*
X0012192Y0069950D01*
X0012192Y0062852D02*
X0010257Y0062852D01*
X0011224Y0062852D02*
X0011224Y0059950D01*
X0013203Y0059950D02*
X0015138Y0062852D01*
X0013203Y0062852D02*
X0015138Y0059950D01*
X0022117Y0025569D02*
X0022117Y0023634D01*
X0021150Y0024601D02*
X0023085Y0024601D01*
X0026909Y0012852D02*
X0028360Y0012852D01*
X0028843Y0012369D01*
X0028843Y0011401D01*
X0028360Y0010917D01*
X0026909Y0010917D01*
X0026909Y0009950D02*
X0026909Y0012852D01*
X0029855Y0011401D02*
X0029855Y0010434D01*
X0030339Y0009950D01*
X0031306Y0009950D01*
X0031790Y0010434D01*
X0031790Y0011401D01*
X0031306Y0011885D01*
X0030339Y0011885D01*
X0029855Y0011401D01*
X0032802Y0011885D02*
X0032802Y0010434D01*
X0033285Y0009950D01*
X0033769Y0010434D01*
X0034253Y0009950D01*
X0034737Y0010434D01*
X0034737Y0011885D01*
X0035748Y0011401D02*
X0036232Y0011885D01*
X0037199Y0011885D01*
X0037683Y0011401D01*
X0037683Y0010917D01*
X0035748Y0010917D01*
X0035748Y0010434D02*
X0035748Y0011401D01*
X0035748Y0010434D02*
X0036232Y0009950D01*
X0037199Y0009950D01*
X0038695Y0009950D02*
X0038695Y0011885D01*
X0039662Y0011885D02*
X0038695Y0010917D01*
X0039662Y0011885D02*
X0040146Y0011885D01*
X0038085Y0024601D02*
X0036150Y0024601D01*
X0111150Y0058634D02*
X0111634Y0058150D01*
X0112601Y0058150D01*
X0113085Y0058634D01*
X0113085Y0059601D01*
X0112601Y0060085D01*
X0112117Y0060085D01*
X0111150Y0059601D01*
X0111150Y0061052D01*
X0113085Y0061052D01*
X0114097Y0060085D02*
X0115064Y0058150D01*
X0116031Y0060085D01*
X0116150Y0030002D02*
X0118619Y0030002D01*
X0116767Y0022470D02*
X0116767Y0021853D01*
X0116767Y0020619D02*
X0116767Y0018150D01*
X0116150Y0018150D02*
X0117384Y0018150D01*
X0118605Y0018150D02*
X0118605Y0020619D01*
X0120457Y0020619D01*
X0121074Y0020002D01*
X0121074Y0018150D01*
X0116767Y0020619D02*
X0116150Y0020619D01*
X0207147Y0123150D02*
X0207147Y0123767D01*
X0210850Y0123767D01*
X0210850Y0123150D02*
X0210850Y0124384D01*
X0210233Y0125605D02*
X0208998Y0125605D01*
X0208381Y0126223D01*
X0208381Y0128074D01*
X0208998Y0129289D02*
X0208381Y0129906D01*
X0208381Y0131757D01*
X0207147Y0131757D02*
X0210850Y0131757D01*
X0210850Y0129906D01*
X0210233Y0129289D01*
X0208998Y0129289D01*
X0210850Y0128074D02*
X0210850Y0126223D01*
X0210233Y0125605D01*
D12*
X0145800Y0105898D02*
X0145033Y0106665D01*
X0143498Y0106665D01*
X0142731Y0105898D01*
X0142731Y0104363D01*
X0143498Y0103596D01*
X0145033Y0103596D01*
X0145800Y0104363D01*
X0145800Y0105898D01*
X0145800Y0102061D02*
X0143498Y0102061D01*
X0142731Y0101294D01*
X0142731Y0098992D01*
X0145800Y0098992D01*
X0145800Y0097457D02*
X0145800Y0095923D01*
X0145800Y0096690D02*
X0142731Y0096690D01*
X0142731Y0095923D01*
X0142731Y0094388D02*
X0145800Y0094388D01*
X0145800Y0092086D01*
X0145033Y0091319D01*
X0142731Y0091319D01*
X0142731Y0089784D02*
X0142731Y0087482D01*
X0143498Y0086715D01*
X0145033Y0086715D01*
X0145800Y0087482D01*
X0145800Y0089784D01*
X0141196Y0089784D01*
X0138300Y0089784D02*
X0133696Y0089784D01*
X0138300Y0092854D01*
X0133696Y0092854D01*
X0135231Y0095155D02*
X0135231Y0096690D01*
X0135998Y0097457D01*
X0138300Y0097457D01*
X0138300Y0095155D01*
X0137533Y0094388D01*
X0136765Y0095155D01*
X0136765Y0097457D01*
X0135231Y0098992D02*
X0135231Y0101294D01*
X0135998Y0102061D01*
X0138300Y0102061D01*
X0137533Y0103596D02*
X0138300Y0104363D01*
X0138300Y0105898D01*
X0137533Y0106665D01*
X0135998Y0106665D01*
X0135231Y0105898D01*
X0135231Y0104363D01*
X0135998Y0103596D01*
X0137533Y0103596D01*
X0138300Y0098992D02*
X0135231Y0098992D01*
X0140429Y0096690D02*
X0141196Y0096690D01*
X0142731Y0085180D02*
X0142731Y0084413D01*
X0144265Y0082878D01*
X0142731Y0082878D02*
X0145800Y0082878D01*
X0145800Y0081344D02*
X0142731Y0081344D01*
X0141196Y0079809D01*
X0142731Y0078274D01*
X0145800Y0078274D01*
X0143498Y0078274D02*
X0143498Y0081344D01*
X0142979Y0039704D02*
X0140677Y0039704D01*
X0140677Y0035100D01*
X0140677Y0036635D02*
X0142979Y0036635D01*
X0143746Y0037402D01*
X0143746Y0038937D01*
X0142979Y0039704D01*
X0139142Y0038937D02*
X0138375Y0039704D01*
X0136841Y0039704D01*
X0136073Y0038937D01*
X0136073Y0038169D01*
X0136841Y0037402D01*
X0138375Y0037402D01*
X0139142Y0036635D01*
X0139142Y0035867D01*
X0138375Y0035100D01*
X0136841Y0035100D01*
X0136073Y0035867D01*
X0134539Y0035867D02*
X0133771Y0035100D01*
X0132237Y0035100D01*
X0131469Y0035867D01*
X0131469Y0038937D01*
X0132237Y0039704D01*
X0133771Y0039704D01*
X0134539Y0038937D01*
X0129935Y0039704D02*
X0128400Y0039704D01*
X0129167Y0039704D02*
X0129167Y0035100D01*
X0128400Y0035100D02*
X0129935Y0035100D01*
X0191196Y0028398D02*
X0191196Y0026096D01*
X0195800Y0026096D01*
X0194265Y0026096D02*
X0194265Y0028398D01*
X0193498Y0029165D01*
X0191963Y0029165D01*
X0191196Y0028398D01*
X0194265Y0027631D02*
X0195800Y0029165D01*
X0196967Y0038200D02*
X0198502Y0038200D01*
X0199269Y0038967D01*
X0199269Y0042804D01*
X0200804Y0042037D02*
X0201571Y0042804D01*
X0203106Y0042804D01*
X0203873Y0042037D01*
X0205408Y0042037D02*
X0206175Y0042804D01*
X0207710Y0042804D01*
X0208477Y0042037D01*
X0208477Y0041269D01*
X0205408Y0038200D01*
X0208477Y0038200D01*
X0203873Y0038967D02*
X0203106Y0038200D01*
X0201571Y0038200D01*
X0200804Y0038967D01*
X0201571Y0040502D02*
X0200804Y0041269D01*
X0200804Y0042037D01*
X0201571Y0040502D02*
X0203106Y0040502D01*
X0203873Y0039735D01*
X0203873Y0038967D01*
X0202339Y0037433D02*
X0202339Y0043571D01*
X0196200Y0042804D02*
X0196200Y0038967D01*
X0196967Y0038200D01*
X0216196Y0028398D02*
X0216196Y0026863D01*
X0216963Y0026096D01*
X0220033Y0026096D01*
X0220800Y0026863D01*
X0220800Y0028398D01*
X0220033Y0029165D01*
X0218498Y0029165D01*
X0218498Y0027631D01*
X0216963Y0029165D02*
X0216196Y0028398D01*
X0216963Y0016665D02*
X0217731Y0016665D01*
X0218498Y0015898D01*
X0218498Y0013596D01*
X0216196Y0013596D02*
X0216196Y0015898D01*
X0216963Y0016665D01*
X0218498Y0015898D02*
X0219265Y0016665D01*
X0220033Y0016665D01*
X0220800Y0015898D01*
X0220800Y0013596D01*
X0216196Y0013596D01*
X0195800Y0013596D02*
X0192731Y0013596D01*
X0191196Y0015131D01*
X0192731Y0016665D01*
X0195800Y0016665D01*
X0193498Y0016665D02*
X0193498Y0013596D01*
D13*
X0206000Y0023000D03*
D14*
X0171000Y0013000D02*
X0101000Y0013000D01*
X0101000Y0183000D01*
X0171000Y0183000D01*
X0171000Y0013000D01*
X0118500Y0016000D02*
X0118502Y0016044D01*
X0118508Y0016088D01*
X0118518Y0016131D01*
X0118531Y0016173D01*
X0118548Y0016214D01*
X0118569Y0016253D01*
X0118593Y0016290D01*
X0118620Y0016325D01*
X0118650Y0016357D01*
X0118683Y0016387D01*
X0118719Y0016413D01*
X0118756Y0016437D01*
X0118796Y0016456D01*
X0118837Y0016473D01*
X0118880Y0016485D01*
X0118923Y0016494D01*
X0118967Y0016499D01*
X0119011Y0016500D01*
X0119055Y0016497D01*
X0119099Y0016490D01*
X0119142Y0016479D01*
X0119184Y0016465D01*
X0119224Y0016447D01*
X0119263Y0016425D01*
X0119299Y0016401D01*
X0119333Y0016373D01*
X0119365Y0016342D01*
X0119394Y0016308D01*
X0119420Y0016272D01*
X0119442Y0016234D01*
X0119461Y0016194D01*
X0119476Y0016152D01*
X0119488Y0016110D01*
X0119496Y0016066D01*
X0119500Y0016022D01*
X0119500Y0015978D01*
X0119496Y0015934D01*
X0119488Y0015890D01*
X0119476Y0015848D01*
X0119461Y0015806D01*
X0119442Y0015766D01*
X0119420Y0015728D01*
X0119394Y0015692D01*
X0119365Y0015658D01*
X0119333Y0015627D01*
X0119299Y0015599D01*
X0119263Y0015575D01*
X0119224Y0015553D01*
X0119184Y0015535D01*
X0119142Y0015521D01*
X0119099Y0015510D01*
X0119055Y0015503D01*
X0119011Y0015500D01*
X0118967Y0015501D01*
X0118923Y0015506D01*
X0118880Y0015515D01*
X0118837Y0015527D01*
X0118796Y0015544D01*
X0118756Y0015563D01*
X0118719Y0015587D01*
X0118683Y0015613D01*
X0118650Y0015643D01*
X0118620Y0015675D01*
X0118593Y0015710D01*
X0118569Y0015747D01*
X0118548Y0015786D01*
X0118531Y0015827D01*
X0118518Y0015869D01*
X0118508Y0015912D01*
X0118502Y0015956D01*
X0118500Y0016000D01*
X0124300Y0149300D02*
X0147800Y0149300D01*
X0147800Y0190300D01*
X0124300Y0190300D01*
X0124300Y0149300D01*
D15*
X0123600Y0033400D02*
X0128600Y0033400D01*
X0131100Y0030900D01*
X0131100Y0015900D01*
X0128600Y0013400D01*
X0123600Y0013400D01*
X0121100Y0015900D01*
X0121100Y0030900D01*
X0123600Y0033400D01*
X0131100Y0030900D02*
X0133600Y0033400D01*
X0138600Y0033400D01*
X0141100Y0030900D01*
X0141100Y0015900D01*
X0138600Y0013400D01*
X0133600Y0013400D01*
X0131100Y0015900D01*
X0141100Y0015900D02*
X0143600Y0013400D01*
X0148600Y0013400D01*
X0151100Y0015900D01*
X0151100Y0030900D01*
X0148600Y0033400D01*
X0143600Y0033400D01*
X0141100Y0030900D01*
D16*
X0160049Y0031128D02*
X0161450Y0030194D01*
X0161450Y0029279D02*
X0160049Y0029279D01*
X0160049Y0028812D02*
X0160049Y0029746D01*
X0160049Y0030194D02*
X0161450Y0031128D01*
X0163372Y0032049D02*
X0164306Y0033450D01*
X0164754Y0033450D02*
X0165221Y0032983D01*
X0164987Y0032983D02*
X0165688Y0032983D01*
X0165688Y0033450D02*
X0165688Y0032049D01*
X0164987Y0032049D01*
X0164754Y0032282D01*
X0164754Y0032749D01*
X0164987Y0032983D01*
X0164306Y0032049D02*
X0163372Y0033450D01*
X0166135Y0033216D02*
X0166135Y0032282D01*
X0166368Y0032049D01*
X0166835Y0032049D01*
X0167069Y0032282D01*
X0167069Y0033216D01*
X0166835Y0033450D01*
X0166368Y0033450D01*
X0166135Y0033216D01*
X0167516Y0033216D02*
X0167516Y0032282D01*
X0167749Y0032049D01*
X0168450Y0032049D01*
X0168450Y0033450D01*
X0167749Y0033450D01*
X0167516Y0033216D01*
X0161450Y0028365D02*
X0161450Y0027431D01*
X0161450Y0027898D02*
X0160049Y0027898D01*
X0160516Y0027431D01*
X0160282Y0026984D02*
X0161216Y0026984D01*
X0161450Y0026751D01*
X0161450Y0026050D01*
X0160049Y0026050D01*
X0160049Y0026751D01*
X0160282Y0026984D01*
X0164254Y0042049D02*
X0165188Y0042049D01*
X0164721Y0042049D02*
X0164721Y0043450D01*
X0165635Y0043216D02*
X0165868Y0043450D01*
X0166335Y0043450D01*
X0166569Y0043216D01*
X0167016Y0043450D02*
X0167483Y0042983D01*
X0167249Y0042983D02*
X0167950Y0042983D01*
X0167950Y0043450D02*
X0167950Y0042049D01*
X0167249Y0042049D01*
X0167016Y0042282D01*
X0167016Y0042749D01*
X0167249Y0042983D01*
X0166569Y0042516D02*
X0166335Y0042749D01*
X0165868Y0042749D01*
X0165635Y0042983D01*
X0165635Y0043216D01*
X0165635Y0042282D02*
X0165868Y0042049D01*
X0166335Y0042049D01*
X0166569Y0042282D01*
X0166569Y0042516D01*
X0166569Y0052049D02*
X0165635Y0053450D01*
X0165635Y0052049D01*
X0165188Y0052049D02*
X0165188Y0053450D01*
X0164487Y0053450D01*
X0164254Y0053216D01*
X0164254Y0052282D01*
X0164487Y0052049D01*
X0165188Y0052049D01*
X0166569Y0052049D02*
X0166569Y0053450D01*
X0167016Y0053216D02*
X0167016Y0052749D01*
X0167483Y0052749D01*
X0167950Y0052282D02*
X0167716Y0052049D01*
X0167249Y0052049D01*
X0167016Y0052282D01*
X0167950Y0052282D02*
X0167950Y0053216D01*
X0167716Y0053450D01*
X0167249Y0053450D01*
X0167016Y0053216D01*
X0166749Y0062049D02*
X0167450Y0062049D01*
X0167450Y0063450D01*
X0166749Y0063450D01*
X0166516Y0063216D01*
X0166516Y0062282D01*
X0166749Y0062049D01*
X0166069Y0062282D02*
X0165835Y0062049D01*
X0165368Y0062049D01*
X0165135Y0062282D01*
X0165135Y0062516D01*
X0166069Y0063450D01*
X0165135Y0063450D01*
X0165368Y0072049D02*
X0165135Y0072282D01*
X0165135Y0072516D01*
X0165368Y0072749D01*
X0165135Y0072983D01*
X0165135Y0073216D01*
X0165368Y0073450D01*
X0165835Y0073450D01*
X0166069Y0073216D01*
X0166516Y0073216D02*
X0166516Y0072282D01*
X0166749Y0072049D01*
X0167450Y0072049D01*
X0167450Y0073450D01*
X0166749Y0073450D01*
X0166516Y0073216D01*
X0165602Y0072749D02*
X0165368Y0072749D01*
X0165368Y0072049D02*
X0165835Y0072049D01*
X0166069Y0072282D01*
X0166749Y0082049D02*
X0167450Y0082049D01*
X0167450Y0083450D01*
X0166749Y0083450D01*
X0166516Y0083216D01*
X0166516Y0082282D01*
X0166749Y0082049D01*
X0166069Y0082749D02*
X0165135Y0082749D01*
X0165368Y0082049D02*
X0166069Y0082749D01*
X0165368Y0082049D02*
X0165368Y0083450D01*
X0165135Y0092049D02*
X0166069Y0092049D01*
X0166069Y0092749D01*
X0165602Y0092516D01*
X0165368Y0092516D01*
X0165135Y0092749D01*
X0165135Y0093216D01*
X0165368Y0093450D01*
X0165835Y0093450D01*
X0166069Y0093216D01*
X0166516Y0093216D02*
X0166516Y0092282D01*
X0166749Y0092049D01*
X0167450Y0092049D01*
X0167450Y0093450D01*
X0166749Y0093450D01*
X0166516Y0093216D01*
X0166749Y0102049D02*
X0167450Y0102049D01*
X0167450Y0103450D01*
X0166749Y0103450D01*
X0166516Y0103216D01*
X0166516Y0102282D01*
X0166749Y0102049D01*
X0166069Y0102749D02*
X0165368Y0102749D01*
X0165135Y0102983D01*
X0165135Y0103216D01*
X0165368Y0103450D01*
X0165835Y0103450D01*
X0166069Y0103216D01*
X0166069Y0102749D01*
X0165602Y0102282D01*
X0165135Y0102049D01*
X0165135Y0112049D02*
X0165135Y0112282D01*
X0166069Y0113216D01*
X0166069Y0113450D01*
X0166516Y0113216D02*
X0166516Y0112282D01*
X0166749Y0112049D01*
X0167450Y0112049D01*
X0167450Y0113450D01*
X0166749Y0113450D01*
X0166516Y0113216D01*
X0166069Y0112049D02*
X0165135Y0112049D01*
X0165368Y0122049D02*
X0165135Y0122282D01*
X0165135Y0122516D01*
X0165368Y0122749D01*
X0165835Y0122749D01*
X0166069Y0122516D01*
X0166069Y0122282D01*
X0165835Y0122049D01*
X0165368Y0122049D01*
X0165368Y0122749D02*
X0165135Y0122983D01*
X0165135Y0123216D01*
X0165368Y0123450D01*
X0165835Y0123450D01*
X0166069Y0123216D01*
X0166069Y0122983D01*
X0165835Y0122749D01*
X0166516Y0122282D02*
X0166749Y0122049D01*
X0167450Y0122049D01*
X0167450Y0123450D01*
X0166749Y0123450D01*
X0166516Y0123216D01*
X0166516Y0122282D01*
X0166749Y0132049D02*
X0167450Y0132049D01*
X0167450Y0133450D01*
X0166749Y0133450D01*
X0166516Y0133216D01*
X0166516Y0132282D01*
X0166749Y0132049D01*
X0166069Y0132282D02*
X0166069Y0132516D01*
X0165835Y0132749D01*
X0165135Y0132749D01*
X0165135Y0132282D02*
X0165368Y0132049D01*
X0165835Y0132049D01*
X0166069Y0132282D01*
X0165135Y0132282D02*
X0165135Y0133216D01*
X0165368Y0133450D01*
X0165835Y0133450D01*
X0166069Y0133216D01*
X0166102Y0142049D02*
X0166102Y0143450D01*
X0166569Y0143450D02*
X0165635Y0143450D01*
X0165188Y0143216D02*
X0164254Y0142282D01*
X0164254Y0143216D01*
X0164487Y0143450D01*
X0164954Y0143450D01*
X0165188Y0143216D01*
X0165188Y0142282D01*
X0164954Y0142049D01*
X0164487Y0142049D01*
X0164254Y0142282D01*
X0166102Y0142049D02*
X0166569Y0142516D01*
X0167016Y0142282D02*
X0167016Y0143216D01*
X0167249Y0143450D01*
X0167950Y0143450D01*
X0167950Y0142049D01*
X0167249Y0142049D01*
X0167016Y0142282D01*
X0167249Y0152049D02*
X0167950Y0152049D01*
X0167950Y0153450D01*
X0167249Y0153450D01*
X0167016Y0153216D01*
X0167016Y0152282D01*
X0167249Y0152049D01*
X0166569Y0152516D02*
X0166102Y0152049D01*
X0166102Y0153450D01*
X0166569Y0153450D02*
X0165635Y0153450D01*
X0165188Y0153450D02*
X0164254Y0153450D01*
X0164721Y0153450D02*
X0164721Y0152049D01*
X0165188Y0152516D01*
X0164954Y0162049D02*
X0165188Y0162282D01*
X0164954Y0162049D02*
X0164487Y0162049D01*
X0164254Y0162282D01*
X0164254Y0162516D01*
X0165188Y0163450D01*
X0164254Y0163450D01*
X0165635Y0163450D02*
X0166569Y0163450D01*
X0166102Y0163450D02*
X0166102Y0162049D01*
X0166569Y0162516D01*
X0167016Y0162282D02*
X0167249Y0162049D01*
X0167950Y0162049D01*
X0167950Y0163450D01*
X0167249Y0163450D01*
X0167016Y0163216D01*
X0167016Y0162282D01*
X0107950Y0162049D02*
X0107249Y0162049D01*
X0107016Y0162282D01*
X0107016Y0163216D01*
X0107249Y0163450D01*
X0107950Y0163450D01*
X0107950Y0162049D01*
X0106569Y0162516D02*
X0106102Y0162049D01*
X0106102Y0163450D01*
X0106569Y0163450D02*
X0105635Y0163450D01*
X0105188Y0163216D02*
X0104954Y0163450D01*
X0104487Y0163450D01*
X0104254Y0163216D01*
X0104254Y0162983D01*
X0104487Y0162749D01*
X0104721Y0162749D01*
X0104487Y0162749D02*
X0104254Y0162516D01*
X0104254Y0162282D01*
X0104487Y0162049D01*
X0104954Y0162049D01*
X0105188Y0162282D01*
X0104954Y0153450D02*
X0105188Y0153216D01*
X0104954Y0153450D02*
X0104487Y0153450D01*
X0104254Y0153216D01*
X0104254Y0152983D01*
X0104487Y0152749D01*
X0104721Y0152749D01*
X0104487Y0152749D02*
X0104254Y0152516D01*
X0104254Y0152282D01*
X0104487Y0152049D01*
X0104954Y0152049D01*
X0105188Y0152282D01*
X0105635Y0152049D02*
X0105635Y0152983D01*
X0106102Y0153450D01*
X0106569Y0152983D01*
X0106569Y0152049D01*
X0107016Y0152282D02*
X0107016Y0152516D01*
X0107249Y0152749D01*
X0107016Y0152983D01*
X0107016Y0153216D01*
X0107249Y0153450D01*
X0107716Y0153450D01*
X0107950Y0153216D01*
X0107483Y0152749D02*
X0107249Y0152749D01*
X0107016Y0152282D02*
X0107249Y0152049D01*
X0107716Y0152049D01*
X0107950Y0152282D01*
X0107516Y0143450D02*
X0107516Y0142516D01*
X0107983Y0142049D01*
X0108450Y0142516D01*
X0108450Y0143450D01*
X0108450Y0142749D02*
X0107516Y0142749D01*
X0107069Y0142983D02*
X0106368Y0142983D01*
X0106135Y0142749D01*
X0106135Y0142282D01*
X0106368Y0142049D01*
X0107069Y0142049D01*
X0107069Y0143450D01*
X0106602Y0142983D02*
X0106135Y0143450D01*
X0105688Y0143450D02*
X0104754Y0143450D01*
X0104306Y0143450D02*
X0104306Y0142049D01*
X0103372Y0142049D01*
X0103839Y0142749D02*
X0104306Y0142749D01*
X0104754Y0142049D02*
X0105688Y0142049D01*
X0105688Y0143450D01*
X0105688Y0142749D02*
X0105221Y0142749D01*
X0105335Y0133450D02*
X0105569Y0133216D01*
X0104635Y0132282D01*
X0104635Y0133216D01*
X0104868Y0133450D01*
X0105335Y0133450D01*
X0105569Y0133216D02*
X0105569Y0132282D01*
X0105335Y0132049D01*
X0104868Y0132049D01*
X0104635Y0132282D01*
X0106016Y0132516D02*
X0106016Y0133450D01*
X0106016Y0132749D02*
X0106950Y0132749D01*
X0106950Y0132516D02*
X0106483Y0132049D01*
X0106016Y0132516D01*
X0106950Y0132516D02*
X0106950Y0133450D01*
X0106950Y0123450D02*
X0106950Y0122516D01*
X0106483Y0122049D01*
X0106016Y0122516D01*
X0106016Y0123450D01*
X0105569Y0123450D02*
X0104635Y0123450D01*
X0105102Y0123450D02*
X0105102Y0122049D01*
X0105569Y0122516D01*
X0106016Y0122749D02*
X0106950Y0122749D01*
X0106950Y0113450D02*
X0106950Y0112516D01*
X0106483Y0112049D01*
X0106016Y0112516D01*
X0106016Y0113450D01*
X0105569Y0113450D02*
X0104635Y0112516D01*
X0104635Y0112282D01*
X0104868Y0112049D01*
X0105335Y0112049D01*
X0105569Y0112282D01*
X0106016Y0112749D02*
X0106950Y0112749D01*
X0105569Y0113450D02*
X0104635Y0113450D01*
X0104868Y0103450D02*
X0105335Y0103450D01*
X0105569Y0103216D01*
X0106016Y0103450D02*
X0106016Y0102516D01*
X0106483Y0102049D01*
X0106950Y0102516D01*
X0106950Y0103450D01*
X0106950Y0102749D02*
X0106016Y0102749D01*
X0105569Y0102282D02*
X0105335Y0102049D01*
X0104868Y0102049D01*
X0104635Y0102282D01*
X0104635Y0102516D01*
X0104868Y0102749D01*
X0104635Y0102983D01*
X0104635Y0103216D01*
X0104868Y0103450D01*
X0104868Y0102749D02*
X0105102Y0102749D01*
X0104868Y0093450D02*
X0104868Y0092049D01*
X0105569Y0092749D01*
X0104635Y0092749D01*
X0106016Y0092749D02*
X0106950Y0092749D01*
X0106950Y0092516D02*
X0106483Y0092049D01*
X0106016Y0092516D01*
X0106016Y0093450D01*
X0106950Y0093450D02*
X0106950Y0092516D01*
X0106950Y0083450D02*
X0106950Y0082516D01*
X0106483Y0082049D01*
X0106016Y0082516D01*
X0106016Y0083450D01*
X0105569Y0083216D02*
X0105335Y0083450D01*
X0104868Y0083450D01*
X0104635Y0083216D01*
X0104635Y0082749D01*
X0104868Y0082516D01*
X0105102Y0082516D01*
X0105569Y0082749D01*
X0105569Y0082049D01*
X0104635Y0082049D01*
X0106016Y0082749D02*
X0106950Y0082749D01*
X0106950Y0073450D02*
X0106950Y0072516D01*
X0106483Y0072049D01*
X0106016Y0072516D01*
X0106016Y0073450D01*
X0105569Y0073216D02*
X0105335Y0073450D01*
X0104868Y0073450D01*
X0104635Y0073216D01*
X0104635Y0072983D01*
X0104868Y0072749D01*
X0105569Y0072749D01*
X0105569Y0073216D01*
X0105569Y0072749D02*
X0105102Y0072282D01*
X0104635Y0072049D01*
X0106016Y0072749D02*
X0106950Y0072749D01*
X0106950Y0063450D02*
X0106950Y0062516D01*
X0106483Y0062049D01*
X0106016Y0062516D01*
X0106016Y0063450D01*
X0105569Y0063450D02*
X0105569Y0063216D01*
X0104635Y0062282D01*
X0104635Y0062049D01*
X0105569Y0062049D01*
X0106016Y0062749D02*
X0106950Y0062749D01*
X0106335Y0053450D02*
X0105868Y0053450D01*
X0105635Y0053216D01*
X0105635Y0052749D01*
X0105868Y0052516D01*
X0106102Y0052516D01*
X0106569Y0052749D01*
X0106569Y0052049D01*
X0105635Y0052049D01*
X0105188Y0052049D02*
X0105188Y0052983D01*
X0104721Y0053450D01*
X0104254Y0052983D01*
X0104254Y0052049D01*
X0106335Y0053450D02*
X0106569Y0053216D01*
X0107016Y0052749D02*
X0107950Y0052749D01*
X0107483Y0052282D02*
X0107483Y0053216D01*
X0107016Y0043450D02*
X0107483Y0042983D01*
X0107249Y0042983D02*
X0107950Y0042983D01*
X0107950Y0043450D02*
X0107950Y0042049D01*
X0107249Y0042049D01*
X0107016Y0042282D01*
X0107016Y0042749D01*
X0107249Y0042983D01*
X0106569Y0043216D02*
X0106335Y0043450D01*
X0105868Y0043450D01*
X0105635Y0043216D01*
X0105635Y0042983D01*
X0105868Y0042749D01*
X0106335Y0042749D01*
X0106569Y0042516D01*
X0106569Y0042282D01*
X0106335Y0042049D01*
X0105868Y0042049D01*
X0105635Y0042282D01*
X0105188Y0042049D02*
X0104254Y0042049D01*
X0104721Y0042049D02*
X0104721Y0043450D01*
X0104487Y0033450D02*
X0104254Y0033216D01*
X0104254Y0032282D01*
X0104487Y0032049D01*
X0105188Y0032049D01*
X0105188Y0033450D01*
X0104487Y0033450D01*
X0105635Y0033450D02*
X0105635Y0032049D01*
X0106569Y0032049D02*
X0105635Y0033450D01*
X0106569Y0033450D02*
X0106569Y0032049D01*
X0107016Y0032282D02*
X0107249Y0032049D01*
X0107716Y0032049D01*
X0107950Y0032282D01*
X0107950Y0033216D01*
X0107716Y0033450D01*
X0107249Y0033450D01*
X0107016Y0033216D01*
X0107016Y0032749D01*
X0107483Y0032749D01*
X0110549Y0029603D02*
X0111950Y0029603D01*
X0110549Y0028669D01*
X0111950Y0028669D01*
X0111950Y0028215D02*
X0111950Y0027748D01*
X0111950Y0027982D02*
X0110549Y0027982D01*
X0110549Y0028215D02*
X0110549Y0027748D01*
X0110549Y0027301D02*
X0111483Y0027301D01*
X0111950Y0026834D01*
X0111483Y0026367D01*
X0110549Y0026367D01*
M02*
