G75*
%MOIN*%
%OFA0B0*%
%FSLAX25Y25*%
%IPPOS*%
%LPD*%
%AMOC8*
5,1,8,0,0,1.08239X$1,22.5*
%
%ADD10R,0.07500X0.05000*%
%ADD11C,0.07000*%
%ADD12OC8,0.07000*%
%ADD13C,0.05000*%
%ADD14R,0.05937X0.05937*%
%ADD15C,0.05937*%
D10*
X0041000Y0151500D03*
X0041000Y0164500D03*
X0061000Y0166500D03*
X0061000Y0179500D03*
D11*
X0106000Y0168000D03*
X0106000Y0158000D03*
X0106000Y0148000D03*
X0106000Y0138000D03*
X0106000Y0128000D03*
X0106000Y0118000D03*
X0106000Y0108000D03*
X0106000Y0098000D03*
X0106000Y0088000D03*
X0106000Y0078000D03*
X0106000Y0068000D03*
X0106000Y0058000D03*
X0106000Y0048000D03*
X0106000Y0038000D03*
X0106000Y0028000D03*
X0166000Y0028000D03*
X0166000Y0038000D03*
X0166000Y0048000D03*
X0166000Y0058000D03*
X0166000Y0068000D03*
X0166000Y0078000D03*
X0166000Y0088000D03*
X0166000Y0098000D03*
X0166000Y0108000D03*
X0166000Y0118000D03*
X0166000Y0128000D03*
X0166000Y0138000D03*
X0166000Y0148000D03*
X0166000Y0158000D03*
X0166000Y0168000D03*
D12*
X0146100Y0028400D03*
X0136100Y0028400D03*
X0126100Y0028400D03*
X0126100Y0018400D03*
X0136100Y0018400D03*
X0146100Y0018400D03*
D13*
X0106000Y0028000D02*
X0081000Y0028000D01*
X0061000Y0008000D01*
X0036000Y0008000D01*
X0026000Y0018000D01*
X0026000Y0033000D01*
X0011000Y0048000D01*
X0011000Y0083000D01*
X0021000Y0093000D01*
X0021000Y0083000D02*
X0026000Y0083000D01*
X0031000Y0088000D01*
X0031000Y0103000D01*
X0031000Y0113000D01*
X0011000Y0133000D01*
X0011000Y0153000D01*
X0021000Y0163000D01*
X0021000Y0188000D01*
X0036000Y0203000D01*
X0056000Y0203000D01*
X0071000Y0203000D01*
X0191000Y0203000D01*
X0206000Y0188000D01*
X0206000Y0133000D01*
X0211000Y0128000D01*
X0221000Y0128000D01*
X0221000Y0118000D02*
X0201000Y0118000D01*
X0196000Y0123000D01*
X0196000Y0183000D01*
X0186000Y0193000D01*
X0126000Y0193000D01*
X0121000Y0188000D01*
X0121000Y0063000D01*
X0116000Y0058000D01*
X0066000Y0058000D01*
X0056000Y0068000D01*
X0056000Y0123000D01*
X0036000Y0143000D01*
X0021000Y0143000D01*
X0041000Y0164500D02*
X0059000Y0164500D01*
X0061000Y0166500D01*
X0041000Y0168000D02*
X0041000Y0183000D01*
X0051000Y0193000D01*
X0061000Y0193000D02*
X0061000Y0198000D01*
X0056000Y0203000D01*
X0071000Y0203000D02*
X0081000Y0193000D01*
X0101000Y0193000D02*
X0116000Y0193000D01*
X0121000Y0188000D01*
X0021000Y0083000D02*
X0031000Y0073000D01*
X0031000Y0053000D01*
X0041000Y0043000D01*
X0041000Y0018000D01*
X0041000Y0023000D01*
X0056000Y0038000D01*
X0106000Y0038000D01*
D14*
X0026000Y0018000D03*
X0021000Y0093000D03*
X0021000Y0143000D03*
X0101000Y0193000D03*
X0221000Y0118000D03*
D15*
X0221000Y0108000D03*
X0221000Y0098000D03*
X0221000Y0128000D03*
X0091000Y0193000D03*
X0081000Y0193000D03*
X0071000Y0193000D03*
X0061000Y0193000D03*
X0051000Y0193000D03*
X0021000Y0163000D03*
X0021000Y0153000D03*
X0021000Y0083000D03*
X0021000Y0073000D03*
X0021000Y0063000D03*
X0041000Y0018000D03*
M02*
