%
M48
M72
T01C0.0394
T02C0.0400
T03C0.0650
%
T01
X2100Y16300
X2100Y8300
X2600Y1800
X4100Y1800
X2100Y14300
X2100Y15300
X5100Y19300
X6100Y19300
X7100Y19300
X10100Y19300
X9100Y19300
X2100Y7300
X2100Y6300
X2100Y9300
X22100Y9800
X22100Y10800
X22100Y11800
X8100Y19300
X22100Y12800
T02
X10600Y16800
X10600Y5800
X10600Y6800
X10600Y7800
X10600Y8800
X10600Y9800
X10600Y10800
X10600Y11800
X10600Y12800
X10600Y13800
X10600Y14800
X10600Y15800
X16600Y13800
X16600Y12800
X16600Y11800
X16600Y10800
X16600Y9800
X16600Y8800
X16600Y7800
X16600Y2800
X16600Y3800
X16600Y4800
X16600Y5800
X16600Y6800
X16600Y15800
X16600Y16800
X16600Y14800
X10600Y4800
X10600Y3800
X10600Y2800
X12610Y1840
X13610Y1840
X14610Y1840
X14610Y2840
X13610Y2840
X12610Y2840
T03
X10600Y17800
X16600Y1800
X16600Y17800
X10600Y1800
M30
