G75*
%MOIN*%
%OFA0B0*%
%FSLAX25Y25*%
%IPPOS*%
%LPD*%
%AMOC8*
5,1,8,0,0,1.08239X$1,22.5*
%
%ADD10R,0.05000X0.07500*%
%ADD11C,0.07600*%
%ADD12C,0.06600*%
%ADD13C,0.05150*%
%ADD14C,0.01600*%
%ADD15R,0.06600X0.06600*%
%ADD16R,0.05150X0.05150*%
D10*
X0034500Y0111000D03*
X0047500Y0111000D03*
X0047500Y0141000D03*
X0034500Y0141000D03*
D11*
X0091000Y0136000D03*
X0091000Y0126000D03*
X0091000Y0116000D03*
X0091000Y0106000D03*
X0091000Y0096000D03*
X0091000Y0086000D03*
X0091000Y0076000D03*
X0091000Y0066000D03*
X0091000Y0056000D03*
X0091000Y0046000D03*
X0091000Y0036000D03*
X0181000Y0036000D03*
X0181000Y0046000D03*
X0181000Y0056000D03*
X0181000Y0066000D03*
X0181000Y0076000D03*
X0181000Y0086000D03*
X0181000Y0096000D03*
X0181000Y0106000D03*
X0181000Y0116000D03*
X0181000Y0126000D03*
X0181000Y0136000D03*
X0181000Y0146000D03*
X0181000Y0156000D03*
X0181000Y0166000D03*
X0181000Y0176000D03*
X0091000Y0176000D03*
X0091000Y0166000D03*
X0091000Y0156000D03*
X0091000Y0146000D03*
D12*
X0016000Y0141000D03*
X0016000Y0131000D03*
X0016000Y0121000D03*
X0016000Y0111000D03*
X0016000Y0101000D03*
X0016000Y0091000D03*
X0246000Y0046000D03*
X0246000Y0036000D03*
D13*
X0241000Y0176000D03*
X0241000Y0186000D03*
X0241000Y0206000D03*
X0036000Y0031000D03*
D14*
X0026000Y0021000D02*
X0031000Y0016000D01*
X0071000Y0016000D01*
X0087182Y0032182D01*
X0091000Y0036000D02*
X0106000Y0036000D01*
X0118500Y0048500D01*
X0132803Y0048500D01*
X0171403Y0009901D01*
X0180597Y0009901D01*
X0181348Y0010652D01*
X0230652Y0010652D01*
X0246000Y0026000D01*
X0246000Y0046000D02*
X0221000Y0071000D01*
X0221000Y0116000D01*
X0186400Y0116000D01*
X0221000Y0116000D02*
X0251000Y0146000D01*
X0251000Y0201000D01*
X0246000Y0206000D01*
X0241000Y0206000D01*
X0237025Y0196000D02*
X0216000Y0196000D01*
X0206000Y0206000D01*
X0166000Y0206000D01*
X0146000Y0186000D01*
X0146000Y0076000D01*
X0118500Y0048500D01*
X0085600Y0046000D02*
X0071000Y0046000D01*
X0056000Y0031000D01*
X0036000Y0031000D01*
X0026000Y0031000D02*
X0026000Y0041000D01*
X0016000Y0051000D01*
X0016000Y0091000D01*
X0046000Y0091000D01*
X0061000Y0106000D01*
X0061000Y0127500D01*
X0047500Y0141000D01*
X0036000Y0139500D02*
X0036000Y0131000D01*
X0047500Y0119500D01*
X0047500Y0111000D01*
X0034500Y0111000D02*
X0016000Y0111000D01*
X0011000Y0111000D01*
X0006000Y0116000D01*
X0006000Y0126000D01*
X0011000Y0131000D01*
X0016000Y0131000D01*
X0016000Y0141000D02*
X0034500Y0141000D01*
X0036000Y0139500D01*
X0026000Y0031000D02*
X0026000Y0021000D01*
X0181000Y0156000D02*
X0211000Y0156000D01*
X0241000Y0186000D01*
D15*
X0246000Y0026000D03*
D16*
X0241000Y0196000D03*
X0026000Y0031000D03*
M02*
