%
M48
M72
T01C0.0315
T02C0.1260
%
T01
X2600Y3100
X3600Y3100
X9100Y3600
X9100Y4600
X9100Y5600
X9100Y6600
X9100Y7600
X9100Y8600
X9100Y9600
X9100Y10600
X9100Y11600
X9100Y12600
X9100Y13600
X9100Y14600
X9100Y15600
X9100Y16600
X9100Y17600
X1600Y14100
X1600Y13100
X1600Y12100
X1600Y11100
X1600Y10100
X1600Y9100
X18100Y8600
X18100Y7600
X18100Y6600
X18100Y5600
X18100Y4600
X18100Y3600
X24600Y3600
X24600Y2600
X24600Y4600
X18100Y9600
X18100Y10600
X18100Y11600
X18100Y12600
X18100Y13600
X18100Y14600
X18100Y15600
X18100Y16600
X18100Y17600
X24100Y17600
X24100Y18600
X24100Y19600
X24100Y20600
T02
X17600Y19100
X9600Y19100
X9600Y2100
X17600Y2100
M30
