G75*
%MOIN*%
%OFA0B0*%
%FSLAX25Y25*%
%IPPOS*%
%LPD*%
%AMOC8*
5,1,8,0,0,1.08239X$1,22.5*
%
%ADD10C,0.00000*%
%ADD11C,0.00600*%
%ADD12C,0.00400*%
D10*
X0001000Y0001000D02*
X0001000Y0234701D01*
X0270921Y0234701D01*
X0270921Y0001000D01*
X0001000Y0001000D01*
X0089701Y0021000D02*
X0089703Y0021158D01*
X0089709Y0021316D01*
X0089719Y0021474D01*
X0089733Y0021632D01*
X0089751Y0021789D01*
X0089772Y0021946D01*
X0089798Y0022102D01*
X0089828Y0022258D01*
X0089861Y0022413D01*
X0089899Y0022566D01*
X0089940Y0022719D01*
X0089985Y0022871D01*
X0090034Y0023022D01*
X0090087Y0023171D01*
X0090143Y0023319D01*
X0090203Y0023465D01*
X0090267Y0023610D01*
X0090335Y0023753D01*
X0090406Y0023895D01*
X0090480Y0024035D01*
X0090558Y0024172D01*
X0090640Y0024308D01*
X0090724Y0024442D01*
X0090813Y0024573D01*
X0090904Y0024702D01*
X0090999Y0024829D01*
X0091096Y0024954D01*
X0091197Y0025076D01*
X0091301Y0025195D01*
X0091408Y0025312D01*
X0091518Y0025426D01*
X0091631Y0025537D01*
X0091746Y0025646D01*
X0091864Y0025751D01*
X0091985Y0025853D01*
X0092108Y0025953D01*
X0092234Y0026049D01*
X0092362Y0026142D01*
X0092492Y0026232D01*
X0092625Y0026318D01*
X0092760Y0026402D01*
X0092896Y0026481D01*
X0093035Y0026558D01*
X0093176Y0026630D01*
X0093318Y0026700D01*
X0093462Y0026765D01*
X0093608Y0026827D01*
X0093755Y0026885D01*
X0093904Y0026940D01*
X0094054Y0026991D01*
X0094205Y0027038D01*
X0094357Y0027081D01*
X0094510Y0027120D01*
X0094665Y0027156D01*
X0094820Y0027187D01*
X0094976Y0027215D01*
X0095132Y0027239D01*
X0095289Y0027259D01*
X0095447Y0027275D01*
X0095604Y0027287D01*
X0095763Y0027295D01*
X0095921Y0027299D01*
X0096079Y0027299D01*
X0096237Y0027295D01*
X0096396Y0027287D01*
X0096553Y0027275D01*
X0096711Y0027259D01*
X0096868Y0027239D01*
X0097024Y0027215D01*
X0097180Y0027187D01*
X0097335Y0027156D01*
X0097490Y0027120D01*
X0097643Y0027081D01*
X0097795Y0027038D01*
X0097946Y0026991D01*
X0098096Y0026940D01*
X0098245Y0026885D01*
X0098392Y0026827D01*
X0098538Y0026765D01*
X0098682Y0026700D01*
X0098824Y0026630D01*
X0098965Y0026558D01*
X0099104Y0026481D01*
X0099240Y0026402D01*
X0099375Y0026318D01*
X0099508Y0026232D01*
X0099638Y0026142D01*
X0099766Y0026049D01*
X0099892Y0025953D01*
X0100015Y0025853D01*
X0100136Y0025751D01*
X0100254Y0025646D01*
X0100369Y0025537D01*
X0100482Y0025426D01*
X0100592Y0025312D01*
X0100699Y0025195D01*
X0100803Y0025076D01*
X0100904Y0024954D01*
X0101001Y0024829D01*
X0101096Y0024702D01*
X0101187Y0024573D01*
X0101276Y0024442D01*
X0101360Y0024308D01*
X0101442Y0024172D01*
X0101520Y0024035D01*
X0101594Y0023895D01*
X0101665Y0023753D01*
X0101733Y0023610D01*
X0101797Y0023465D01*
X0101857Y0023319D01*
X0101913Y0023171D01*
X0101966Y0023022D01*
X0102015Y0022871D01*
X0102060Y0022719D01*
X0102101Y0022566D01*
X0102139Y0022413D01*
X0102172Y0022258D01*
X0102202Y0022102D01*
X0102228Y0021946D01*
X0102249Y0021789D01*
X0102267Y0021632D01*
X0102281Y0021474D01*
X0102291Y0021316D01*
X0102297Y0021158D01*
X0102299Y0021000D01*
X0102297Y0020842D01*
X0102291Y0020684D01*
X0102281Y0020526D01*
X0102267Y0020368D01*
X0102249Y0020211D01*
X0102228Y0020054D01*
X0102202Y0019898D01*
X0102172Y0019742D01*
X0102139Y0019587D01*
X0102101Y0019434D01*
X0102060Y0019281D01*
X0102015Y0019129D01*
X0101966Y0018978D01*
X0101913Y0018829D01*
X0101857Y0018681D01*
X0101797Y0018535D01*
X0101733Y0018390D01*
X0101665Y0018247D01*
X0101594Y0018105D01*
X0101520Y0017965D01*
X0101442Y0017828D01*
X0101360Y0017692D01*
X0101276Y0017558D01*
X0101187Y0017427D01*
X0101096Y0017298D01*
X0101001Y0017171D01*
X0100904Y0017046D01*
X0100803Y0016924D01*
X0100699Y0016805D01*
X0100592Y0016688D01*
X0100482Y0016574D01*
X0100369Y0016463D01*
X0100254Y0016354D01*
X0100136Y0016249D01*
X0100015Y0016147D01*
X0099892Y0016047D01*
X0099766Y0015951D01*
X0099638Y0015858D01*
X0099508Y0015768D01*
X0099375Y0015682D01*
X0099240Y0015598D01*
X0099104Y0015519D01*
X0098965Y0015442D01*
X0098824Y0015370D01*
X0098682Y0015300D01*
X0098538Y0015235D01*
X0098392Y0015173D01*
X0098245Y0015115D01*
X0098096Y0015060D01*
X0097946Y0015009D01*
X0097795Y0014962D01*
X0097643Y0014919D01*
X0097490Y0014880D01*
X0097335Y0014844D01*
X0097180Y0014813D01*
X0097024Y0014785D01*
X0096868Y0014761D01*
X0096711Y0014741D01*
X0096553Y0014725D01*
X0096396Y0014713D01*
X0096237Y0014705D01*
X0096079Y0014701D01*
X0095921Y0014701D01*
X0095763Y0014705D01*
X0095604Y0014713D01*
X0095447Y0014725D01*
X0095289Y0014741D01*
X0095132Y0014761D01*
X0094976Y0014785D01*
X0094820Y0014813D01*
X0094665Y0014844D01*
X0094510Y0014880D01*
X0094357Y0014919D01*
X0094205Y0014962D01*
X0094054Y0015009D01*
X0093904Y0015060D01*
X0093755Y0015115D01*
X0093608Y0015173D01*
X0093462Y0015235D01*
X0093318Y0015300D01*
X0093176Y0015370D01*
X0093035Y0015442D01*
X0092896Y0015519D01*
X0092760Y0015598D01*
X0092625Y0015682D01*
X0092492Y0015768D01*
X0092362Y0015858D01*
X0092234Y0015951D01*
X0092108Y0016047D01*
X0091985Y0016147D01*
X0091864Y0016249D01*
X0091746Y0016354D01*
X0091631Y0016463D01*
X0091518Y0016574D01*
X0091408Y0016688D01*
X0091301Y0016805D01*
X0091197Y0016924D01*
X0091096Y0017046D01*
X0090999Y0017171D01*
X0090904Y0017298D01*
X0090813Y0017427D01*
X0090724Y0017558D01*
X0090640Y0017692D01*
X0090558Y0017828D01*
X0090480Y0017965D01*
X0090406Y0018105D01*
X0090335Y0018247D01*
X0090267Y0018390D01*
X0090203Y0018535D01*
X0090143Y0018681D01*
X0090087Y0018829D01*
X0090034Y0018978D01*
X0089985Y0019129D01*
X0089940Y0019281D01*
X0089899Y0019434D01*
X0089861Y0019587D01*
X0089828Y0019742D01*
X0089798Y0019898D01*
X0089772Y0020054D01*
X0089751Y0020211D01*
X0089733Y0020368D01*
X0089719Y0020526D01*
X0089709Y0020684D01*
X0089703Y0020842D01*
X0089701Y0021000D01*
X0169701Y0021000D02*
X0169703Y0021158D01*
X0169709Y0021316D01*
X0169719Y0021474D01*
X0169733Y0021632D01*
X0169751Y0021789D01*
X0169772Y0021946D01*
X0169798Y0022102D01*
X0169828Y0022258D01*
X0169861Y0022413D01*
X0169899Y0022566D01*
X0169940Y0022719D01*
X0169985Y0022871D01*
X0170034Y0023022D01*
X0170087Y0023171D01*
X0170143Y0023319D01*
X0170203Y0023465D01*
X0170267Y0023610D01*
X0170335Y0023753D01*
X0170406Y0023895D01*
X0170480Y0024035D01*
X0170558Y0024172D01*
X0170640Y0024308D01*
X0170724Y0024442D01*
X0170813Y0024573D01*
X0170904Y0024702D01*
X0170999Y0024829D01*
X0171096Y0024954D01*
X0171197Y0025076D01*
X0171301Y0025195D01*
X0171408Y0025312D01*
X0171518Y0025426D01*
X0171631Y0025537D01*
X0171746Y0025646D01*
X0171864Y0025751D01*
X0171985Y0025853D01*
X0172108Y0025953D01*
X0172234Y0026049D01*
X0172362Y0026142D01*
X0172492Y0026232D01*
X0172625Y0026318D01*
X0172760Y0026402D01*
X0172896Y0026481D01*
X0173035Y0026558D01*
X0173176Y0026630D01*
X0173318Y0026700D01*
X0173462Y0026765D01*
X0173608Y0026827D01*
X0173755Y0026885D01*
X0173904Y0026940D01*
X0174054Y0026991D01*
X0174205Y0027038D01*
X0174357Y0027081D01*
X0174510Y0027120D01*
X0174665Y0027156D01*
X0174820Y0027187D01*
X0174976Y0027215D01*
X0175132Y0027239D01*
X0175289Y0027259D01*
X0175447Y0027275D01*
X0175604Y0027287D01*
X0175763Y0027295D01*
X0175921Y0027299D01*
X0176079Y0027299D01*
X0176237Y0027295D01*
X0176396Y0027287D01*
X0176553Y0027275D01*
X0176711Y0027259D01*
X0176868Y0027239D01*
X0177024Y0027215D01*
X0177180Y0027187D01*
X0177335Y0027156D01*
X0177490Y0027120D01*
X0177643Y0027081D01*
X0177795Y0027038D01*
X0177946Y0026991D01*
X0178096Y0026940D01*
X0178245Y0026885D01*
X0178392Y0026827D01*
X0178538Y0026765D01*
X0178682Y0026700D01*
X0178824Y0026630D01*
X0178965Y0026558D01*
X0179104Y0026481D01*
X0179240Y0026402D01*
X0179375Y0026318D01*
X0179508Y0026232D01*
X0179638Y0026142D01*
X0179766Y0026049D01*
X0179892Y0025953D01*
X0180015Y0025853D01*
X0180136Y0025751D01*
X0180254Y0025646D01*
X0180369Y0025537D01*
X0180482Y0025426D01*
X0180592Y0025312D01*
X0180699Y0025195D01*
X0180803Y0025076D01*
X0180904Y0024954D01*
X0181001Y0024829D01*
X0181096Y0024702D01*
X0181187Y0024573D01*
X0181276Y0024442D01*
X0181360Y0024308D01*
X0181442Y0024172D01*
X0181520Y0024035D01*
X0181594Y0023895D01*
X0181665Y0023753D01*
X0181733Y0023610D01*
X0181797Y0023465D01*
X0181857Y0023319D01*
X0181913Y0023171D01*
X0181966Y0023022D01*
X0182015Y0022871D01*
X0182060Y0022719D01*
X0182101Y0022566D01*
X0182139Y0022413D01*
X0182172Y0022258D01*
X0182202Y0022102D01*
X0182228Y0021946D01*
X0182249Y0021789D01*
X0182267Y0021632D01*
X0182281Y0021474D01*
X0182291Y0021316D01*
X0182297Y0021158D01*
X0182299Y0021000D01*
X0182297Y0020842D01*
X0182291Y0020684D01*
X0182281Y0020526D01*
X0182267Y0020368D01*
X0182249Y0020211D01*
X0182228Y0020054D01*
X0182202Y0019898D01*
X0182172Y0019742D01*
X0182139Y0019587D01*
X0182101Y0019434D01*
X0182060Y0019281D01*
X0182015Y0019129D01*
X0181966Y0018978D01*
X0181913Y0018829D01*
X0181857Y0018681D01*
X0181797Y0018535D01*
X0181733Y0018390D01*
X0181665Y0018247D01*
X0181594Y0018105D01*
X0181520Y0017965D01*
X0181442Y0017828D01*
X0181360Y0017692D01*
X0181276Y0017558D01*
X0181187Y0017427D01*
X0181096Y0017298D01*
X0181001Y0017171D01*
X0180904Y0017046D01*
X0180803Y0016924D01*
X0180699Y0016805D01*
X0180592Y0016688D01*
X0180482Y0016574D01*
X0180369Y0016463D01*
X0180254Y0016354D01*
X0180136Y0016249D01*
X0180015Y0016147D01*
X0179892Y0016047D01*
X0179766Y0015951D01*
X0179638Y0015858D01*
X0179508Y0015768D01*
X0179375Y0015682D01*
X0179240Y0015598D01*
X0179104Y0015519D01*
X0178965Y0015442D01*
X0178824Y0015370D01*
X0178682Y0015300D01*
X0178538Y0015235D01*
X0178392Y0015173D01*
X0178245Y0015115D01*
X0178096Y0015060D01*
X0177946Y0015009D01*
X0177795Y0014962D01*
X0177643Y0014919D01*
X0177490Y0014880D01*
X0177335Y0014844D01*
X0177180Y0014813D01*
X0177024Y0014785D01*
X0176868Y0014761D01*
X0176711Y0014741D01*
X0176553Y0014725D01*
X0176396Y0014713D01*
X0176237Y0014705D01*
X0176079Y0014701D01*
X0175921Y0014701D01*
X0175763Y0014705D01*
X0175604Y0014713D01*
X0175447Y0014725D01*
X0175289Y0014741D01*
X0175132Y0014761D01*
X0174976Y0014785D01*
X0174820Y0014813D01*
X0174665Y0014844D01*
X0174510Y0014880D01*
X0174357Y0014919D01*
X0174205Y0014962D01*
X0174054Y0015009D01*
X0173904Y0015060D01*
X0173755Y0015115D01*
X0173608Y0015173D01*
X0173462Y0015235D01*
X0173318Y0015300D01*
X0173176Y0015370D01*
X0173035Y0015442D01*
X0172896Y0015519D01*
X0172760Y0015598D01*
X0172625Y0015682D01*
X0172492Y0015768D01*
X0172362Y0015858D01*
X0172234Y0015951D01*
X0172108Y0016047D01*
X0171985Y0016147D01*
X0171864Y0016249D01*
X0171746Y0016354D01*
X0171631Y0016463D01*
X0171518Y0016574D01*
X0171408Y0016688D01*
X0171301Y0016805D01*
X0171197Y0016924D01*
X0171096Y0017046D01*
X0170999Y0017171D01*
X0170904Y0017298D01*
X0170813Y0017427D01*
X0170724Y0017558D01*
X0170640Y0017692D01*
X0170558Y0017828D01*
X0170480Y0017965D01*
X0170406Y0018105D01*
X0170335Y0018247D01*
X0170267Y0018390D01*
X0170203Y0018535D01*
X0170143Y0018681D01*
X0170087Y0018829D01*
X0170034Y0018978D01*
X0169985Y0019129D01*
X0169940Y0019281D01*
X0169899Y0019434D01*
X0169861Y0019587D01*
X0169828Y0019742D01*
X0169798Y0019898D01*
X0169772Y0020054D01*
X0169751Y0020211D01*
X0169733Y0020368D01*
X0169719Y0020526D01*
X0169709Y0020684D01*
X0169703Y0020842D01*
X0169701Y0021000D01*
X0169701Y0191000D02*
X0169703Y0191158D01*
X0169709Y0191316D01*
X0169719Y0191474D01*
X0169733Y0191632D01*
X0169751Y0191789D01*
X0169772Y0191946D01*
X0169798Y0192102D01*
X0169828Y0192258D01*
X0169861Y0192413D01*
X0169899Y0192566D01*
X0169940Y0192719D01*
X0169985Y0192871D01*
X0170034Y0193022D01*
X0170087Y0193171D01*
X0170143Y0193319D01*
X0170203Y0193465D01*
X0170267Y0193610D01*
X0170335Y0193753D01*
X0170406Y0193895D01*
X0170480Y0194035D01*
X0170558Y0194172D01*
X0170640Y0194308D01*
X0170724Y0194442D01*
X0170813Y0194573D01*
X0170904Y0194702D01*
X0170999Y0194829D01*
X0171096Y0194954D01*
X0171197Y0195076D01*
X0171301Y0195195D01*
X0171408Y0195312D01*
X0171518Y0195426D01*
X0171631Y0195537D01*
X0171746Y0195646D01*
X0171864Y0195751D01*
X0171985Y0195853D01*
X0172108Y0195953D01*
X0172234Y0196049D01*
X0172362Y0196142D01*
X0172492Y0196232D01*
X0172625Y0196318D01*
X0172760Y0196402D01*
X0172896Y0196481D01*
X0173035Y0196558D01*
X0173176Y0196630D01*
X0173318Y0196700D01*
X0173462Y0196765D01*
X0173608Y0196827D01*
X0173755Y0196885D01*
X0173904Y0196940D01*
X0174054Y0196991D01*
X0174205Y0197038D01*
X0174357Y0197081D01*
X0174510Y0197120D01*
X0174665Y0197156D01*
X0174820Y0197187D01*
X0174976Y0197215D01*
X0175132Y0197239D01*
X0175289Y0197259D01*
X0175447Y0197275D01*
X0175604Y0197287D01*
X0175763Y0197295D01*
X0175921Y0197299D01*
X0176079Y0197299D01*
X0176237Y0197295D01*
X0176396Y0197287D01*
X0176553Y0197275D01*
X0176711Y0197259D01*
X0176868Y0197239D01*
X0177024Y0197215D01*
X0177180Y0197187D01*
X0177335Y0197156D01*
X0177490Y0197120D01*
X0177643Y0197081D01*
X0177795Y0197038D01*
X0177946Y0196991D01*
X0178096Y0196940D01*
X0178245Y0196885D01*
X0178392Y0196827D01*
X0178538Y0196765D01*
X0178682Y0196700D01*
X0178824Y0196630D01*
X0178965Y0196558D01*
X0179104Y0196481D01*
X0179240Y0196402D01*
X0179375Y0196318D01*
X0179508Y0196232D01*
X0179638Y0196142D01*
X0179766Y0196049D01*
X0179892Y0195953D01*
X0180015Y0195853D01*
X0180136Y0195751D01*
X0180254Y0195646D01*
X0180369Y0195537D01*
X0180482Y0195426D01*
X0180592Y0195312D01*
X0180699Y0195195D01*
X0180803Y0195076D01*
X0180904Y0194954D01*
X0181001Y0194829D01*
X0181096Y0194702D01*
X0181187Y0194573D01*
X0181276Y0194442D01*
X0181360Y0194308D01*
X0181442Y0194172D01*
X0181520Y0194035D01*
X0181594Y0193895D01*
X0181665Y0193753D01*
X0181733Y0193610D01*
X0181797Y0193465D01*
X0181857Y0193319D01*
X0181913Y0193171D01*
X0181966Y0193022D01*
X0182015Y0192871D01*
X0182060Y0192719D01*
X0182101Y0192566D01*
X0182139Y0192413D01*
X0182172Y0192258D01*
X0182202Y0192102D01*
X0182228Y0191946D01*
X0182249Y0191789D01*
X0182267Y0191632D01*
X0182281Y0191474D01*
X0182291Y0191316D01*
X0182297Y0191158D01*
X0182299Y0191000D01*
X0182297Y0190842D01*
X0182291Y0190684D01*
X0182281Y0190526D01*
X0182267Y0190368D01*
X0182249Y0190211D01*
X0182228Y0190054D01*
X0182202Y0189898D01*
X0182172Y0189742D01*
X0182139Y0189587D01*
X0182101Y0189434D01*
X0182060Y0189281D01*
X0182015Y0189129D01*
X0181966Y0188978D01*
X0181913Y0188829D01*
X0181857Y0188681D01*
X0181797Y0188535D01*
X0181733Y0188390D01*
X0181665Y0188247D01*
X0181594Y0188105D01*
X0181520Y0187965D01*
X0181442Y0187828D01*
X0181360Y0187692D01*
X0181276Y0187558D01*
X0181187Y0187427D01*
X0181096Y0187298D01*
X0181001Y0187171D01*
X0180904Y0187046D01*
X0180803Y0186924D01*
X0180699Y0186805D01*
X0180592Y0186688D01*
X0180482Y0186574D01*
X0180369Y0186463D01*
X0180254Y0186354D01*
X0180136Y0186249D01*
X0180015Y0186147D01*
X0179892Y0186047D01*
X0179766Y0185951D01*
X0179638Y0185858D01*
X0179508Y0185768D01*
X0179375Y0185682D01*
X0179240Y0185598D01*
X0179104Y0185519D01*
X0178965Y0185442D01*
X0178824Y0185370D01*
X0178682Y0185300D01*
X0178538Y0185235D01*
X0178392Y0185173D01*
X0178245Y0185115D01*
X0178096Y0185060D01*
X0177946Y0185009D01*
X0177795Y0184962D01*
X0177643Y0184919D01*
X0177490Y0184880D01*
X0177335Y0184844D01*
X0177180Y0184813D01*
X0177024Y0184785D01*
X0176868Y0184761D01*
X0176711Y0184741D01*
X0176553Y0184725D01*
X0176396Y0184713D01*
X0176237Y0184705D01*
X0176079Y0184701D01*
X0175921Y0184701D01*
X0175763Y0184705D01*
X0175604Y0184713D01*
X0175447Y0184725D01*
X0175289Y0184741D01*
X0175132Y0184761D01*
X0174976Y0184785D01*
X0174820Y0184813D01*
X0174665Y0184844D01*
X0174510Y0184880D01*
X0174357Y0184919D01*
X0174205Y0184962D01*
X0174054Y0185009D01*
X0173904Y0185060D01*
X0173755Y0185115D01*
X0173608Y0185173D01*
X0173462Y0185235D01*
X0173318Y0185300D01*
X0173176Y0185370D01*
X0173035Y0185442D01*
X0172896Y0185519D01*
X0172760Y0185598D01*
X0172625Y0185682D01*
X0172492Y0185768D01*
X0172362Y0185858D01*
X0172234Y0185951D01*
X0172108Y0186047D01*
X0171985Y0186147D01*
X0171864Y0186249D01*
X0171746Y0186354D01*
X0171631Y0186463D01*
X0171518Y0186574D01*
X0171408Y0186688D01*
X0171301Y0186805D01*
X0171197Y0186924D01*
X0171096Y0187046D01*
X0170999Y0187171D01*
X0170904Y0187298D01*
X0170813Y0187427D01*
X0170724Y0187558D01*
X0170640Y0187692D01*
X0170558Y0187828D01*
X0170480Y0187965D01*
X0170406Y0188105D01*
X0170335Y0188247D01*
X0170267Y0188390D01*
X0170203Y0188535D01*
X0170143Y0188681D01*
X0170087Y0188829D01*
X0170034Y0188978D01*
X0169985Y0189129D01*
X0169940Y0189281D01*
X0169899Y0189434D01*
X0169861Y0189587D01*
X0169828Y0189742D01*
X0169798Y0189898D01*
X0169772Y0190054D01*
X0169751Y0190211D01*
X0169733Y0190368D01*
X0169719Y0190526D01*
X0169709Y0190684D01*
X0169703Y0190842D01*
X0169701Y0191000D01*
X0089701Y0191000D02*
X0089703Y0191158D01*
X0089709Y0191316D01*
X0089719Y0191474D01*
X0089733Y0191632D01*
X0089751Y0191789D01*
X0089772Y0191946D01*
X0089798Y0192102D01*
X0089828Y0192258D01*
X0089861Y0192413D01*
X0089899Y0192566D01*
X0089940Y0192719D01*
X0089985Y0192871D01*
X0090034Y0193022D01*
X0090087Y0193171D01*
X0090143Y0193319D01*
X0090203Y0193465D01*
X0090267Y0193610D01*
X0090335Y0193753D01*
X0090406Y0193895D01*
X0090480Y0194035D01*
X0090558Y0194172D01*
X0090640Y0194308D01*
X0090724Y0194442D01*
X0090813Y0194573D01*
X0090904Y0194702D01*
X0090999Y0194829D01*
X0091096Y0194954D01*
X0091197Y0195076D01*
X0091301Y0195195D01*
X0091408Y0195312D01*
X0091518Y0195426D01*
X0091631Y0195537D01*
X0091746Y0195646D01*
X0091864Y0195751D01*
X0091985Y0195853D01*
X0092108Y0195953D01*
X0092234Y0196049D01*
X0092362Y0196142D01*
X0092492Y0196232D01*
X0092625Y0196318D01*
X0092760Y0196402D01*
X0092896Y0196481D01*
X0093035Y0196558D01*
X0093176Y0196630D01*
X0093318Y0196700D01*
X0093462Y0196765D01*
X0093608Y0196827D01*
X0093755Y0196885D01*
X0093904Y0196940D01*
X0094054Y0196991D01*
X0094205Y0197038D01*
X0094357Y0197081D01*
X0094510Y0197120D01*
X0094665Y0197156D01*
X0094820Y0197187D01*
X0094976Y0197215D01*
X0095132Y0197239D01*
X0095289Y0197259D01*
X0095447Y0197275D01*
X0095604Y0197287D01*
X0095763Y0197295D01*
X0095921Y0197299D01*
X0096079Y0197299D01*
X0096237Y0197295D01*
X0096396Y0197287D01*
X0096553Y0197275D01*
X0096711Y0197259D01*
X0096868Y0197239D01*
X0097024Y0197215D01*
X0097180Y0197187D01*
X0097335Y0197156D01*
X0097490Y0197120D01*
X0097643Y0197081D01*
X0097795Y0197038D01*
X0097946Y0196991D01*
X0098096Y0196940D01*
X0098245Y0196885D01*
X0098392Y0196827D01*
X0098538Y0196765D01*
X0098682Y0196700D01*
X0098824Y0196630D01*
X0098965Y0196558D01*
X0099104Y0196481D01*
X0099240Y0196402D01*
X0099375Y0196318D01*
X0099508Y0196232D01*
X0099638Y0196142D01*
X0099766Y0196049D01*
X0099892Y0195953D01*
X0100015Y0195853D01*
X0100136Y0195751D01*
X0100254Y0195646D01*
X0100369Y0195537D01*
X0100482Y0195426D01*
X0100592Y0195312D01*
X0100699Y0195195D01*
X0100803Y0195076D01*
X0100904Y0194954D01*
X0101001Y0194829D01*
X0101096Y0194702D01*
X0101187Y0194573D01*
X0101276Y0194442D01*
X0101360Y0194308D01*
X0101442Y0194172D01*
X0101520Y0194035D01*
X0101594Y0193895D01*
X0101665Y0193753D01*
X0101733Y0193610D01*
X0101797Y0193465D01*
X0101857Y0193319D01*
X0101913Y0193171D01*
X0101966Y0193022D01*
X0102015Y0192871D01*
X0102060Y0192719D01*
X0102101Y0192566D01*
X0102139Y0192413D01*
X0102172Y0192258D01*
X0102202Y0192102D01*
X0102228Y0191946D01*
X0102249Y0191789D01*
X0102267Y0191632D01*
X0102281Y0191474D01*
X0102291Y0191316D01*
X0102297Y0191158D01*
X0102299Y0191000D01*
X0102297Y0190842D01*
X0102291Y0190684D01*
X0102281Y0190526D01*
X0102267Y0190368D01*
X0102249Y0190211D01*
X0102228Y0190054D01*
X0102202Y0189898D01*
X0102172Y0189742D01*
X0102139Y0189587D01*
X0102101Y0189434D01*
X0102060Y0189281D01*
X0102015Y0189129D01*
X0101966Y0188978D01*
X0101913Y0188829D01*
X0101857Y0188681D01*
X0101797Y0188535D01*
X0101733Y0188390D01*
X0101665Y0188247D01*
X0101594Y0188105D01*
X0101520Y0187965D01*
X0101442Y0187828D01*
X0101360Y0187692D01*
X0101276Y0187558D01*
X0101187Y0187427D01*
X0101096Y0187298D01*
X0101001Y0187171D01*
X0100904Y0187046D01*
X0100803Y0186924D01*
X0100699Y0186805D01*
X0100592Y0186688D01*
X0100482Y0186574D01*
X0100369Y0186463D01*
X0100254Y0186354D01*
X0100136Y0186249D01*
X0100015Y0186147D01*
X0099892Y0186047D01*
X0099766Y0185951D01*
X0099638Y0185858D01*
X0099508Y0185768D01*
X0099375Y0185682D01*
X0099240Y0185598D01*
X0099104Y0185519D01*
X0098965Y0185442D01*
X0098824Y0185370D01*
X0098682Y0185300D01*
X0098538Y0185235D01*
X0098392Y0185173D01*
X0098245Y0185115D01*
X0098096Y0185060D01*
X0097946Y0185009D01*
X0097795Y0184962D01*
X0097643Y0184919D01*
X0097490Y0184880D01*
X0097335Y0184844D01*
X0097180Y0184813D01*
X0097024Y0184785D01*
X0096868Y0184761D01*
X0096711Y0184741D01*
X0096553Y0184725D01*
X0096396Y0184713D01*
X0096237Y0184705D01*
X0096079Y0184701D01*
X0095921Y0184701D01*
X0095763Y0184705D01*
X0095604Y0184713D01*
X0095447Y0184725D01*
X0095289Y0184741D01*
X0095132Y0184761D01*
X0094976Y0184785D01*
X0094820Y0184813D01*
X0094665Y0184844D01*
X0094510Y0184880D01*
X0094357Y0184919D01*
X0094205Y0184962D01*
X0094054Y0185009D01*
X0093904Y0185060D01*
X0093755Y0185115D01*
X0093608Y0185173D01*
X0093462Y0185235D01*
X0093318Y0185300D01*
X0093176Y0185370D01*
X0093035Y0185442D01*
X0092896Y0185519D01*
X0092760Y0185598D01*
X0092625Y0185682D01*
X0092492Y0185768D01*
X0092362Y0185858D01*
X0092234Y0185951D01*
X0092108Y0186047D01*
X0091985Y0186147D01*
X0091864Y0186249D01*
X0091746Y0186354D01*
X0091631Y0186463D01*
X0091518Y0186574D01*
X0091408Y0186688D01*
X0091301Y0186805D01*
X0091197Y0186924D01*
X0091096Y0187046D01*
X0090999Y0187171D01*
X0090904Y0187298D01*
X0090813Y0187427D01*
X0090724Y0187558D01*
X0090640Y0187692D01*
X0090558Y0187828D01*
X0090480Y0187965D01*
X0090406Y0188105D01*
X0090335Y0188247D01*
X0090267Y0188390D01*
X0090203Y0188535D01*
X0090143Y0188681D01*
X0090087Y0188829D01*
X0090034Y0188978D01*
X0089985Y0189129D01*
X0089940Y0189281D01*
X0089899Y0189434D01*
X0089861Y0189587D01*
X0089828Y0189742D01*
X0089798Y0189898D01*
X0089772Y0190054D01*
X0089751Y0190211D01*
X0089733Y0190368D01*
X0089719Y0190526D01*
X0089709Y0190684D01*
X0089703Y0190842D01*
X0089701Y0191000D01*
D11*
X0089674Y0216300D02*
X0089674Y0220570D01*
X0088606Y0220570D01*
X0089674Y0222705D02*
X0089674Y0223773D01*
X0086445Y0222705D02*
X0085377Y0221638D01*
X0085377Y0216300D01*
X0088606Y0216300D02*
X0090742Y0216300D01*
X0093971Y0217368D02*
X0095039Y0216300D01*
X0093971Y0217368D02*
X0093971Y0221638D01*
X0092903Y0220570D02*
X0095039Y0220570D01*
X0086445Y0219503D02*
X0084309Y0219503D01*
X0082134Y0219503D02*
X0082134Y0218435D01*
X0077864Y0218435D01*
X0077864Y0217368D02*
X0077864Y0219503D01*
X0078932Y0220570D01*
X0081067Y0220570D01*
X0082134Y0219503D01*
X0081067Y0216300D02*
X0078932Y0216300D01*
X0077864Y0217368D01*
X0075689Y0216300D02*
X0075689Y0219503D01*
X0074621Y0220570D01*
X0071418Y0220570D01*
X0071418Y0216300D01*
X0069243Y0218435D02*
X0064973Y0218435D01*
X0064973Y0217368D02*
X0064973Y0219503D01*
X0066041Y0220570D01*
X0068176Y0220570D01*
X0069243Y0219503D01*
X0069243Y0218435D01*
X0068176Y0216300D02*
X0066041Y0216300D01*
X0064973Y0217368D01*
X0062798Y0217368D02*
X0061730Y0216300D01*
X0058527Y0216300D01*
X0058527Y0222705D01*
X0061730Y0222705D01*
X0062798Y0221638D01*
X0062798Y0220570D01*
X0061730Y0219503D01*
X0058527Y0219503D01*
X0061730Y0219503D02*
X0062798Y0218435D01*
X0062798Y0217368D01*
X0049907Y0217368D02*
X0048839Y0216300D01*
X0045636Y0216300D01*
X0045636Y0214165D02*
X0045636Y0220570D01*
X0048839Y0220570D01*
X0049907Y0219503D01*
X0049907Y0217368D01*
X0043461Y0218435D02*
X0040259Y0218435D01*
X0039191Y0217368D01*
X0040259Y0216300D01*
X0043461Y0216300D01*
X0043461Y0219503D01*
X0042394Y0220570D01*
X0040259Y0220570D01*
X0037016Y0219503D02*
X0037016Y0218435D01*
X0032745Y0218435D01*
X0032745Y0217368D02*
X0032745Y0219503D01*
X0033813Y0220570D01*
X0035948Y0220570D01*
X0037016Y0219503D01*
X0033813Y0216300D02*
X0032745Y0217368D01*
X0033813Y0216300D02*
X0035948Y0216300D01*
X0030570Y0216300D02*
X0028435Y0218435D01*
X0029503Y0218435D02*
X0026300Y0218435D01*
X0026300Y0216300D02*
X0026300Y0222705D01*
X0029503Y0222705D01*
X0030570Y0221638D01*
X0030570Y0219503D01*
X0029503Y0218435D01*
X0120362Y0048461D02*
X0119295Y0047394D01*
X0119295Y0045259D01*
X0120362Y0044191D01*
X0120362Y0042016D02*
X0119295Y0040948D01*
X0119295Y0038813D01*
X0120362Y0037745D01*
X0121430Y0037745D01*
X0122497Y0038813D01*
X0122497Y0040948D01*
X0123565Y0042016D01*
X0124632Y0042016D01*
X0125700Y0040948D01*
X0125700Y0038813D01*
X0124632Y0037745D01*
X0124632Y0035570D02*
X0119295Y0035570D01*
X0118227Y0039881D02*
X0126768Y0039881D01*
X0124632Y0035570D02*
X0125700Y0034503D01*
X0125700Y0032368D01*
X0124632Y0031300D01*
X0119295Y0031300D01*
X0125700Y0044191D02*
X0121430Y0048461D01*
X0120362Y0048461D01*
X0125700Y0048461D02*
X0125700Y0044191D01*
X0045285Y0025570D02*
X0044217Y0025570D01*
X0042082Y0023435D01*
X0042082Y0021300D02*
X0042082Y0025570D01*
X0039907Y0024503D02*
X0039907Y0023435D01*
X0035636Y0023435D01*
X0035636Y0022368D02*
X0035636Y0024503D01*
X0036704Y0025570D01*
X0038839Y0025570D01*
X0039907Y0024503D01*
X0038839Y0021300D02*
X0036704Y0021300D01*
X0035636Y0022368D01*
X0033461Y0022368D02*
X0033461Y0025570D01*
X0033461Y0022368D02*
X0032394Y0021300D01*
X0031326Y0022368D01*
X0030259Y0021300D01*
X0029191Y0022368D01*
X0029191Y0025570D01*
X0027016Y0024503D02*
X0027016Y0022368D01*
X0025948Y0021300D01*
X0023813Y0021300D01*
X0022745Y0022368D01*
X0022745Y0024503D01*
X0023813Y0025570D01*
X0025948Y0025570D01*
X0027016Y0024503D01*
X0020570Y0024503D02*
X0019503Y0023435D01*
X0016300Y0023435D01*
X0016300Y0021300D02*
X0016300Y0027705D01*
X0019503Y0027705D01*
X0020570Y0026638D01*
X0020570Y0024503D01*
X0229295Y0024503D02*
X0229295Y0021300D01*
X0235700Y0021300D01*
X0235700Y0024503D01*
X0234632Y0025570D01*
X0230362Y0025570D01*
X0229295Y0024503D01*
X0229295Y0027745D02*
X0235700Y0027745D01*
X0232497Y0027745D02*
X0232497Y0032016D01*
X0229295Y0032016D02*
X0235700Y0032016D01*
X0235700Y0036326D02*
X0229295Y0036326D01*
X0229295Y0034191D02*
X0229295Y0038461D01*
X0230362Y0040636D02*
X0229295Y0041704D01*
X0229295Y0043839D01*
X0230362Y0044907D01*
X0231430Y0044907D01*
X0235700Y0040636D01*
X0235700Y0044907D01*
X0235700Y0047082D02*
X0231430Y0051352D01*
X0230362Y0051352D01*
X0229295Y0050285D01*
X0229295Y0048150D01*
X0230362Y0047082D01*
X0235700Y0047082D02*
X0235700Y0051352D01*
D12*
X0234665Y0171200D02*
X0231596Y0171200D01*
X0231596Y0175804D01*
X0230061Y0175037D02*
X0229294Y0175804D01*
X0227759Y0175804D01*
X0226992Y0175037D01*
X0226992Y0171967D01*
X0227759Y0171200D01*
X0229294Y0171200D01*
X0230061Y0171967D01*
X0225457Y0171967D02*
X0224690Y0171200D01*
X0223156Y0171200D01*
X0222388Y0171967D01*
X0223156Y0173502D02*
X0222388Y0174269D01*
X0222388Y0175037D01*
X0223156Y0175804D01*
X0224690Y0175804D01*
X0225457Y0175037D01*
X0224690Y0173502D02*
X0225457Y0172735D01*
X0225457Y0171967D01*
X0224690Y0173502D02*
X0223156Y0173502D01*
X0226196Y0186200D02*
X0230800Y0186200D01*
X0230800Y0189269D01*
X0230033Y0190804D02*
X0230800Y0191571D01*
X0230800Y0193106D01*
X0230033Y0193873D01*
X0230800Y0195408D02*
X0230800Y0197710D01*
X0230033Y0198477D01*
X0226963Y0198477D01*
X0226196Y0197710D01*
X0226196Y0195408D01*
X0230800Y0195408D01*
X0226963Y0193873D02*
X0226196Y0193106D01*
X0226196Y0191571D01*
X0226963Y0190804D01*
X0230033Y0190804D01*
X0015800Y0163131D02*
X0011196Y0163131D01*
X0011196Y0164665D02*
X0011196Y0161596D01*
X0011963Y0160061D02*
X0011196Y0159294D01*
X0011196Y0157759D01*
X0011963Y0156992D01*
X0012731Y0156992D01*
X0013498Y0157759D01*
X0013498Y0159294D01*
X0014265Y0160061D01*
X0015033Y0160061D01*
X0015800Y0159294D01*
X0015800Y0157759D01*
X0015033Y0156992D01*
X0015033Y0155457D02*
X0011196Y0155457D01*
X0011196Y0152388D02*
X0015033Y0152388D01*
X0015800Y0153155D01*
X0015800Y0154690D01*
X0015033Y0155457D01*
X0015033Y0150854D02*
X0011963Y0150854D01*
X0011196Y0150086D01*
X0011196Y0147784D01*
X0015800Y0147784D01*
X0015800Y0150086D01*
X0015033Y0150854D01*
M02*
