G75*
%MOIN*%
%OFA0B0*%
%FSLAX25Y25*%
%IPPOS*%
%LPD*%
%AMOC8*
5,1,8,0,0,1.08239X$1,22.5*
%
%ADD10C,0.07600*%
%ADD11C,0.06600*%
%ADD12C,0.05150*%
%ADD13C,0.01600*%
%ADD14R,0.06600X0.06600*%
%ADD15R,0.05150X0.05150*%
D10*
X0091000Y0036000D03*
X0091000Y0046000D03*
X0091000Y0056000D03*
X0091000Y0066000D03*
X0091000Y0076000D03*
X0091000Y0086000D03*
X0091000Y0096000D03*
X0091000Y0106000D03*
X0091000Y0116000D03*
X0091000Y0126000D03*
X0091000Y0136000D03*
X0091000Y0146000D03*
X0091000Y0156000D03*
X0091000Y0166000D03*
X0091000Y0176000D03*
X0181000Y0176000D03*
X0181000Y0166000D03*
X0181000Y0156000D03*
X0181000Y0146000D03*
X0181000Y0136000D03*
X0181000Y0126000D03*
X0181000Y0116000D03*
X0181000Y0106000D03*
X0181000Y0096000D03*
X0181000Y0086000D03*
X0181000Y0076000D03*
X0181000Y0066000D03*
X0181000Y0056000D03*
X0181000Y0046000D03*
X0181000Y0036000D03*
D11*
X0246000Y0036000D03*
X0246000Y0046000D03*
X0016000Y0091000D03*
X0016000Y0101000D03*
X0016000Y0111000D03*
X0016000Y0121000D03*
X0016000Y0131000D03*
X0016000Y0141000D03*
D12*
X0036000Y0031000D03*
X0241000Y0176000D03*
X0241000Y0186000D03*
X0241000Y0206000D03*
D13*
X0241000Y0176000D02*
X0231000Y0166000D01*
X0181000Y0166000D01*
X0181000Y0176000D02*
X0166000Y0176000D01*
X0136000Y0206000D01*
X0076000Y0206000D01*
X0041000Y0171000D01*
X0041000Y0131000D01*
X0031000Y0121000D01*
X0016000Y0121000D01*
X0016000Y0111000D02*
X0006000Y0101000D01*
X0006000Y0081000D01*
X0016000Y0071000D01*
X0031000Y0071000D01*
X0036000Y0066000D01*
X0036000Y0031000D01*
X0016000Y0101000D02*
X0056000Y0101000D01*
X0066000Y0111000D01*
X0066000Y0151000D01*
X0091000Y0176000D01*
X0181000Y0106000D02*
X0201000Y0106000D01*
X0206000Y0101000D01*
X0206000Y0061000D01*
X0231000Y0036000D01*
X0246000Y0036000D01*
D14*
X0246000Y0026000D03*
D15*
X0026000Y0031000D03*
X0241000Y0196000D03*
M02*
